<svg id="Capa_1" data-name="Capa 1" xmlns="http://www.w3.org/2000/svg" xmlns:xlink="http://www.w3.org/1999/xlink" viewBox="0 0 172.09 133.23"><defs><style>.cls-1{fill:none;}.cls-2{clip-path:url(#clip-path);}.cls-3{fill:#f2f2f2;}.cls-4{fill:#b1afaf;}.cls-5{fill:#ffb9b9;}.cls-6{fill:#ff948a;}.cls-7{fill:#ffb8b8;}.cls-8{fill:#3f3d56;}.cls-9{fill:#ffb6b6;}.cls-10{fill:#2f2e41;}.cls-11{fill:#e6e6e6;}.cls-12{fill:#fff;}</style><clipPath id="clip-path"><rect class="cls-1" x="2.4" y="0.68" width="179.39" height="139.38"/></clipPath></defs><title>1</title><g class="cls-2"><path class="cls-3" d="M25.81,62a28.43,28.43,0,0,1-15-14.69A40.89,40.89,0,0,1,8,35.42c-.45-4-.54-8.21,1.18-11.85a12.72,12.72,0,0,1,21.73-2.14,9.12,9.12,0,0,1,1.94,5.25c0,4-3.15,7.16-4.55,10.88s-.93,8.1-.68,12.2.09,8.55-2.39,11.81"/><path class="cls-3" d="M144.79,106.34a28.43,28.43,0,0,0,17.2-12,41.17,41.17,0,0,0,4.84-11.25c1.11-3.87,1.9-8,.81-11.88a12.73,12.73,0,0,0-21.07-5.74,9.12,9.12,0,0,0-2.79,4.85c-.7,3.91,1.91,7.59,2.68,11.49S146,90,145.09,94s-1.51,8.41.4,12.05"/><path class="cls-4" d="M91.79,105.89A45.5,45.5,0,0,1,64,96.5,46.28,46.28,0,0,1,47.68,72.77l.39-.12A45.56,45.56,0,0,0,109.32,102l.16.38A45.57,45.57,0,0,1,91.79,105.89Z"/><path class="cls-4" d="M135.24,46.29A45.56,45.56,0,0,0,74.49,17.75l-.16-.38a45.94,45.94,0,0,1,61.3,28.8Z"/><path class="cls-5" d="M136.55,114.65a34.18,34.18,0,1,1,34.14-34.17A34.19,34.19,0,0,1,136.55,114.65Zm0-67.93a33.76,33.76,0,1,0,33.72,33.76A33.78,33.78,0,0,0,136.55,46.72Z"/><path class="cls-6" d="M36.54,69A34.17,34.17,0,1,1,70.68,34.85,34.2,34.2,0,0,1,36.54,69Zm0-67.93A33.76,33.76,0,1,0,70.27,34.85,33.78,33.78,0,0,0,36.54,1.09Z"/><path class="cls-7" d="M32.37,38.52l-3,5.86,3,1.71s2-6.58,2.1-6.83a1.63,1.63,0,0,0,.75-.62,1.66,1.66,0,0,0,.27-.94,1.72,1.72,0,0,0-.31-.93,1.66,1.66,0,0,0-.78-.58,1.64,1.64,0,0,0-1,0,1.57,1.57,0,0,0-.82.52,1.63,1.63,0,0,0-.39.89A1.67,1.67,0,0,0,32.37,38.52Z"/><path class="cls-8" d="M18.42,35.84c1.34,5,6.18,8.15,10.19,11.95a3.83,3.83,0,0,0,1.54.2,3.72,3.72,0,0,0,1.49-.44,3.83,3.83,0,0,0,1.19-1,3.88,3.88,0,0,0,.68-1.4l1.35-5.3-3.44-.09L30,41.3,25.4,38Z"/><path class="cls-9" d="M140.64,83a2.28,2.28,0,0,1,1.53.74,2.23,2.23,0,0,1,.57,1.59,1.49,1.49,0,0,1-.05.36l6.63,4.18-3.66,1.62-5.73-4.22a2.2,2.2,0,0,1-1.18-.85,2.17,2.17,0,0,1-.21-2.19,2.1,2.1,0,0,1,.5-.68,2.19,2.19,0,0,1,.72-.43,2.32,2.32,0,0,1,.83-.12Z"/><path class="cls-6" d="M147,88l-1.64,3.39,6.49,4.18a3.25,3.25,0,0,0,1.55.52,3.15,3.15,0,0,0,1.59-.31,3,3,0,0,0,1.41-1.36,3.11,3.11,0,0,0,.31-1.94l-2.11-12a3.33,3.33,0,0,0-1.28-2.11,3.28,3.28,0,0,0-2.38-.65,3.18,3.18,0,0,0-2.13,1.16,3.22,3.22,0,0,0-.68,2.33s0,.07,0,.1a2,2,0,0,0,.06.34l2.3,8.57Z"/><path class="cls-7" d="M146.58,102.56h9.29v-9.3h-9.29Z"/><path class="cls-9" d="M124.54,120.65l-3.54-1.2-2,9.67,2.4.81Z"/><path class="cls-9" d="M130.84,118.81l-3.65.86,3.43,9.25,2.47-.58Z"/><path class="cls-10" d="M155.53,105c1.87,12.42-22.93,5.08-22.93,5.08l-7.78,10.73-4.55-.83s2-6.44,5.71-15.08c1.62-3.84,20.07-2.9,20.07-2.9l.38-3L157,98.77Z"/><path class="cls-10" d="M131.82,107.4l-6.76.16a111.48,111.48,0,0,0,2,13l3.93-1.25Z"/><path class="cls-6" d="M150.23,78.15l1.87-2.41,2.66-.12.27,2.27,1.32.61a35.45,35.45,0,0,1,.6,15.37,1.4,1.4,0,0,0-.38.61,1.46,1.46,0,0,0,0,.72l.09.34h0a2,2,0,0,0-.27,1.5l.63,1.12a3,3,0,0,1,.4,1.31,3.23,3.23,0,0,1-.93,2.52,3.35,3.35,0,0,1-1.16.73c-3.88,1.41-7.52,1.93-10.21-2L144.25,87Z"/><path class="cls-7" d="M152.08,76.76a4.94,4.94,0,1,0-4.94-4.94A4.94,4.94,0,0,0,152.08,76.76Z"/><path class="cls-10" d="M154.66,65.49a4,4,0,0,1,3.7,4.33c1.55,1.61,1,3.59-.26,5.7a14.2,14.2,0,0,0-5,1.24l-.27-1.28-.62,1.66c-.53.24-1,.51-1.57.8a5.94,5.94,0,0,1,.72-4.82c.89-1.29-1.27-2.81-2.82-2.6l0-1.18-.39,1.17a1.79,1.79,0,0,1-1.95,0h0C145.12,64.7,153.72,63.12,154.66,65.49Z"/><path class="cls-10" d="M19.34,21.78c-2.07,0-3.71,2-3.67,4.44-1.53,1.66-1,3.68.26,5.85a13.69,13.69,0,0,1,4.95,1.27L21.15,32l.61,1.7c.52.25,1,.52,1.56.82a6.22,6.22,0,0,0-.72-4.94c-.88-1.32,1.27-2.89,2.81-2.67l0-1.21.39,1.2a1.76,1.76,0,0,0,1.94,0h0C28.82,21,20.28,19.35,19.34,21.78Z"/><path class="cls-10" d="M122.52,131.56l-1.58-.2-.09-1.53-.92,1.39-4.19-.54a1,1,0,0,1-.54-.26.94.94,0,0,1-.27-.52.92.92,0,0,1,.08-.59,1,1,0,0,1,.42-.42l3.65-1.88.19-1.51,3.5.67Z"/><path class="cls-10" d="M134,130.69l-1.58.21-.47-1.46-.53,1.58-4.2.54a.91.91,0,0,1-.58-.11,1,1,0,0,1-.4-.43.93.93,0,0,1-.07-.59,1,1,0,0,1,.3-.52l3-2.74-.19-1.51,3.54-.25Z"/><path class="cls-9" d="M141.24,84.19a2.26,2.26,0,0,1,2.1,2.33c0,.12,0,.23-.05.35l6.63,4.18-3.67,1.62-5.73-4.21a2.28,2.28,0,0,1-1.17-.85,2.21,2.21,0,0,1-.41-1.39,2.1,2.1,0,0,1,.2-.81,2.18,2.18,0,0,1,.5-.67,2.08,2.08,0,0,1,.71-.43,2,2,0,0,1,.83-.12Z"/><path class="cls-6" d="M147.63,89.15,146,92.55l6.5,4.18A3.16,3.16,0,0,0,157,95.57a3,3,0,0,0,.3-1.94l-2.1-12A3.32,3.32,0,0,0,154,79.47a3.37,3.37,0,0,0-2.38-.65,3.32,3.32,0,0,0-1.18.37,3.13,3.13,0,0,0-.94.8,3,3,0,0,0-.57,1.09,3.05,3.05,0,0,0-.11,1.24s0,.06,0,.09,0,.23.07.35l2.3,8.56Z"/><path class="cls-7" d="M25.25,97l2.08,1L32,90.33l-3.07-1.39Z"/><path class="cls-10" d="M24.2,99.13,30.6,102l0-.08a2.72,2.72,0,0,0-1.37-3.62h0L28.5,96.9l-2.58-.1-.56-.25Z"/><path class="cls-7" d="M51.06,86.65l2.2-.62-1.34-8.79-3.24.91Z"/><path class="cls-10" d="M51.63,89l6.76-1.9,0-.09A2.73,2.73,0,0,0,55,85.09h0l-1.5-.59-2,1.58-.59.17Z"/><path class="cls-10" d="M17.75,61c.05,1.63,3.52,6,5.34,6.66l.49.16.63-.19,7.68-2.32c1.34.79,5.35,1.19,8.64,1.39a6.89,6.89,0,0,1,4.08,1.53c.78,5.88,3,10.17,5.57,15.44l3.08-.53L50.35,63.47a2.18,2.18,0,0,0-1.61-1.8L27.8,56.19s-1.16-.21-3.6,1C20.19,59.09,17.71,59.77,17.75,61Z"/><path class="cls-10" d="M21.75,60.64c-.7,1.48.34,7,1.66,8.38l.35.24.12.06c.8,2.69,9.32,10.56,9.32,10.56a34,34,0,0,0-6.59,13.17l3.33,1.21,9.37-14A2.12,2.12,0,0,0,39.68,79a2.16,2.16,0,0,0-.39-1.23l-3.83-5.46L29.23,60.26C24.78,60.12,22.26,59.57,21.75,60.64Z"/><path class="cls-8" d="M17.87,61.6s-.25-.64-.26-.64-1.2-.13-.95-2l.32-2-.31-1.81-.53-.53.85-.86-.52-3.87-.2-7.75c-.51-2.67-.38-5.1,2.06-6.27l2.8-2.6,3.18,0,3.62,2.14,1.75,3.5.67,9.46.51,1.18,0,0a6.3,6.3,0,0,0-.49.48,4.55,4.55,0,0,0,.23,1.54l.22,1.64-.55.39.71.85,1.95,3.29-.11,0c-.14,0-1.36,1.8-14.82,3.85C17.9,61.54,17.9,61.6,17.87,61.6Z"/><path class="cls-7" d="M23.44,32.49a4.56,4.56,0,1,0-4.55-4.55A4.55,4.55,0,0,0,23.44,32.49Z"/><path class="cls-10" d="M21.2,30.87a1.12,1.12,0,0,0-.7-.24.73.73,0,0,0-.22.09.55.55,0,0,0-.17.17A.16.16,0,0,1,20,31a.2.2,0,0,1-.11,0c-.48,0-1.52-.89-1.59-2.63,0-.82-.53-2.22.26-3,.05-.31.67-3.47,3.44-3.55s4.72.48,5.17,1.56A15.17,15.17,0,0,1,27.91,26l.09.54-.22-.5a2.49,2.49,0,0,0-1.16-1.19,1.19,1.19,0,0,1-.11.41,1.69,1.69,0,0,1-1.57.89,4.07,4.07,0,0,1-1.43-.31.46.46,0,0,1,.08.25.48.48,0,0,1-.07.26.47.47,0,0,1-.19.18.51.51,0,0,1-.27,0h-.13a.17.17,0,0,0-.12,0,.23.23,0,0,0-.07.1.24.24,0,0,0,0,.12.2.2,0,0,0,.09.09l.11.06L22.8,27a2.86,2.86,0,0,0-1.32,1.23,2.79,2.79,0,0,0-.3,1.79l.16.92Z"/><path class="cls-11" d="M93.26,101.26a.57.57,0,0,1-.36-.09.63.63,0,0,1-.23-.28.56.56,0,0,1,0-.36.57.57,0,0,1,.18-.32l0-.17,0,0a1.56,1.56,0,0,0-.6-.72,1.65,1.65,0,0,0-1.81,0,1.68,1.68,0,0,0-.6.74,14.26,14.26,0,0,0-1.27,3.63,4.89,4.89,0,0,0,.08,1.66,19.61,19.61,0,0,1-1.76-8A18,18,0,0,1,87,95.18a16.25,16.25,0,0,1,.27-1.7,19.52,19.52,0,0,1,3.88-8.3,5.21,5.21,0,0,0,2.16-2.25,3.8,3.8,0,0,0,.37-1.09l-.32,0h-.11a.67.67,0,0,1-.34-.09.51.51,0,0,1-.23-.25.63.63,0,0,1-.06-.33.61.61,0,0,1,.13-.32l.14-.16.21-.26s0,0,0,0l.24-.29a1.66,1.66,0,0,0-.57-.55,2,2,0,0,0-2.48.57,3.19,3.19,0,0,0-.48,2.64,6.94,6.94,0,0,0,1,2.15l-.13.17a19.4,19.4,0,0,0-2,3.26,8.24,8.24,0,0,0-.49-3.81A14,14,0,0,0,86,81.52a1.69,1.69,0,0,0-3,.83v0c.11.07.23.13.34.21a.81.81,0,0,1,.3.38.72.72,0,0,1,0,.48.84.84,0,0,1-.24.43.86.86,0,0,1-.44.21h0a8.31,8.31,0,0,0,.21,1.23,8.44,8.44,0,0,0,4.21,5.3l.2.1a19.74,19.74,0,0,0-1.08,5.1,18.63,18.63,0,0,0,0,3.08v0A5,5,0,0,0,84.81,96c-1.32-1.09-3.19-1.49-4.62-2.36a.92.92,0,0,0-.51-.15,1,1,0,0,0-.51.14,1,1,0,0,0-.35.4,1,1,0,0,0-.08.53v0a5,5,0,0,1,.62.29l.33.21a.83.83,0,0,1,.35.87.78.78,0,0,1-.24.42.79.79,0,0,1-.44.21h-.05a8.31,8.31,0,0,0,1.51,2.37A8.44,8.44,0,0,0,87,101.63h0a20.46,20.46,0,0,0,1.35,4h4.83a1.09,1.09,0,0,1,0-.17,5.46,5.46,0,0,1-1.34-.08L92.92,104l0,0,.54-.68h0a8.32,8.32,0,0,0-.23-2Z"/><path class="cls-11" d="M116.45,26.37a.61.61,0,0,1,.19.32.56.56,0,0,1,0,.36.49.49,0,0,1-.23.28.53.53,0,0,1-.35.1l-.14.09,0,0a1.62,1.62,0,0,0-.07,1,1.57,1.57,0,0,0,.46.82,1.51,1.51,0,0,0,.84.43,1.56,1.56,0,0,0,.93-.1A14.8,14.8,0,0,0,121.48,28a5.07,5.07,0,0,0,1.1-1.25,19.48,19.48,0,0,1-4.35,7,18.64,18.64,0,0,1-1.54,1.41,16.9,16.9,0,0,1-1.37,1,19.52,19.52,0,0,1-8.57,3.23,5.27,5.27,0,0,0-3.12.1,4.12,4.12,0,0,0-1,.53l.25.2.07.07h0a.6.6,0,0,1,.17.64.59.59,0,0,1-.19.28.58.58,0,0,1-.31.13l-.21,0-.33,0h0l-.37,0a1.66,1.66,0,0,0,0,.8,2,2,0,0,0,2.17,1.31A3.14,3.14,0,0,0,106,42a6.91,6.91,0,0,0,.81-2.21l.21,0a20.28,20.28,0,0,0,3.75-.9,8.31,8.31,0,0,0-2.31,3.07,14,14,0,0,0-.62,3.67,1.69,1.69,0,0,0,2.73,1.5l0,0c0-.12-.07-.25-.1-.38a.79.79,0,0,1,0-.48.77.77,0,0,1,.31-.38.83.83,0,0,1,.46-.14.88.88,0,0,1,.47.16h0a8.89,8.89,0,0,0,.7-1,8.49,8.49,0,0,0,.68-6.73,1.87,1.87,0,0,0-.07-.22A20,20,0,0,0,117.48,35a18.71,18.71,0,0,0,2.14-2.22l0,0a5,5,0,0,0-.8,3.29c.19,1.7,1.25,3.3,1.66,4.92a1,1,0,0,0,.26.47,1,1,0,0,0,.47.25,1,1,0,0,0,.53-.05.88.88,0,0,0,.42-.31l0,0a4.93,4.93,0,0,1-.24-.64c0-.13-.07-.26-.1-.39a.79.79,0,0,1,0-.48.81.81,0,0,1,.78-.51.79.79,0,0,1,.46.15h0l0,0a8.14,8.14,0,0,0,.57-2.75,8.57,8.57,0,0,0-.62-3.36,8.4,8.4,0,0,0-1.89-2.85h0A20.29,20.29,0,0,0,123,26.74l-3.46-3.37-.14.08a5.63,5.63,0,0,1,.9,1l-1.69.2h0l-.86.1h0a8.26,8.26,0,0,0-1.26,1.63Z"/><path class="cls-7" d="M33.27,39.89l-4.35,5,2.47,2.38s3.58-5.88,3.7-6.11a1.65,1.65,0,0,0,.68-3,1.64,1.64,0,0,0-.94-.27,1.6,1.6,0,0,0-.92.3,1.67,1.67,0,0,0-.6.78A1.61,1.61,0,0,0,33.27,39.89Z"/><path class="cls-8" d="M18.07,36.89c.09,5.16,4,9.42,7,14.08a3.8,3.8,0,0,0,1.45.57A3.86,3.86,0,0,0,28,51.48a3.9,3.9,0,0,0,1.4-.69,3.83,3.83,0,0,0,1-1.19L33,44.79l-3.31-.93L28,45,24.3,40.71Z"/><path class="cls-6" d="M115.54,17.55a8.13,8.13,0,1,1-8.13-8.12A8.13,8.13,0,0,1,115.54,17.55Z"/><path class="cls-12" d="M110.94,16.12h-.72V14.05a2.88,2.88,0,0,0-5.75,0v2.07h-.72a.75.75,0,0,0-.72.68v4.82a.75.75,0,0,0,.72.68h7.19a.75.75,0,0,0,.72-.68V16.8A.75.75,0,0,0,110.94,16.12Zm-2.87,4.81h-1.44l.29-1.51a1.07,1.07,0,0,1-.65-.9,1.08,1.08,0,0,1,2.16,0,.91.91,0,0,1-.65.9Zm.72-4.81h-2.88V14.05a1.44,1.44,0,0,1,2.88,0Z"/><path class="cls-12" d="M140.64,75a.57.57,0,0,1-.22,0,.59.59,0,0,1-.18-.13l-6-6.55a.81.81,0,0,0-.24-.17.72.72,0,0,0-.29-.06H102a1.81,1.81,0,0,1-1.82-1.82V54.84a1.81,1.81,0,0,1,.53-1.28A1.83,1.83,0,0,1,102,53h41.08a1.81,1.81,0,0,1,1.81,1.81V66.27a1.81,1.81,0,0,1-1.81,1.82h-1.17a.72.72,0,0,0-.72.72V74.5a.5.5,0,0,1-.1.31.55.55,0,0,1-.25.2A.64.64,0,0,1,140.64,75Z"/><path class="cls-8" d="M140.64,75a.57.57,0,0,1-.22,0,.59.59,0,0,1-.18-.13l-6-6.55a.81.81,0,0,0-.24-.17.72.72,0,0,0-.29-.06H102a1.81,1.81,0,0,1-1.82-1.82V54.84a1.81,1.81,0,0,1,.53-1.28A1.83,1.83,0,0,1,102,53h41.08a1.81,1.81,0,0,1,1.81,1.81V66.27a1.81,1.81,0,0,1-1.81,1.82h-1.17a.72.72,0,0,0-.72.72V74.5a.5.5,0,0,1-.1.31.55.55,0,0,1-.25.2A.64.64,0,0,1,140.64,75ZM102,53.27a1.57,1.57,0,0,0-1.58,1.57V66.27A1.57,1.57,0,0,0,102,67.85h31.71a1.09,1.09,0,0,1,.39.08.9.9,0,0,1,.32.23l6,6.54a.27.27,0,0,0,.15.09.27.27,0,0,0,.18,0,.26.26,0,0,0,.14-.11.27.27,0,0,0,.06-.17V68.81a1,1,0,0,1,1-1h1.17a1.57,1.57,0,0,0,1.57-1.58V54.84a1.57,1.57,0,0,0-1.57-1.57Z"/><path class="cls-6" d="M104.63,58.07A1.59,1.59,0,1,0,103,56.48,1.59,1.59,0,0,0,104.63,58.07Z"/><path class="cls-11" d="M141.23,65.27H103.85a.78.78,0,0,1-.33-.07.83.83,0,0,1-.45-.45.78.78,0,0,1-.07-.33.71.71,0,0,1,.07-.32.84.84,0,0,1,.18-.28.8.8,0,0,1,.27-.18,1,1,0,0,1,.33-.06h37.38a.84.84,0,0,1,.84.84.84.84,0,0,1-.25.6A.82.82,0,0,1,141.23,65.27Z"/><path class="cls-11" d="M129.05,61.67h-25.2a1,1,0,0,1-.33-.06,1,1,0,0,1-.27-.19.8.8,0,0,1-.18-.27.75.75,0,0,1-.07-.33.71.71,0,0,1,.07-.32.84.84,0,0,1,.18-.28,1,1,0,0,1,.27-.18,1,1,0,0,1,.33-.06h25.2a.89.89,0,0,1,.6.24.86.86,0,0,1,.25.6.84.84,0,0,1-.25.6A.86.86,0,0,1,129.05,61.67Z"/><path class="cls-12" d="M36.48,28.81a.55.55,0,0,1-.25-.2.53.53,0,0,1-.09-.3V22.62a.7.7,0,0,0-.22-.51.69.69,0,0,0-.51-.21H34.25A1.87,1.87,0,0,1,33,21.36a1.81,1.81,0,0,1-.53-1.28V8.65a1.81,1.81,0,0,1,1.82-1.81H75.33a1.81,1.81,0,0,1,1.81,1.81V20.08a1.81,1.81,0,0,1-.53,1.28,1.86,1.86,0,0,1-1.28.54H43.62a.72.72,0,0,0-.29.06.74.74,0,0,0-.25.17l-6,6.54a.46.46,0,0,1-.18.13.42.42,0,0,1-.22.05A.48.48,0,0,1,36.48,28.81Z"/><path class="cls-8" d="M36.48,28.81a.55.55,0,0,1-.25-.2.53.53,0,0,1-.09-.3V22.62a.7.7,0,0,0-.22-.51.69.69,0,0,0-.51-.21H34.25A1.87,1.87,0,0,1,33,21.36a1.81,1.81,0,0,1-.53-1.28V8.65a1.81,1.81,0,0,1,1.82-1.81H75.33a1.81,1.81,0,0,1,1.81,1.81V20.08a1.81,1.81,0,0,1-.53,1.28,1.86,1.86,0,0,1-1.28.54H43.62a.72.72,0,0,0-.29.06.74.74,0,0,0-.25.17l-6,6.54a.46.46,0,0,1-.18.13.42.42,0,0,1-.22.05A.48.48,0,0,1,36.48,28.81ZM34.25,7.08a1.57,1.57,0,0,0-1.58,1.57V20.08a1.57,1.57,0,0,0,1.58,1.57h1.16a1,1,0,0,1,.68.29.92.92,0,0,1,.29.68v5.69a.34.34,0,0,0,0,.17.3.3,0,0,0,.14.11.37.37,0,0,0,.18,0,.24.24,0,0,0,.15-.09l6-6.54a1,1,0,0,1,.33-.23.86.86,0,0,1,.39-.09H75.33a1.57,1.57,0,0,0,1.57-1.57V8.65a1.57,1.57,0,0,0-1.57-1.57Z"/><path class="cls-6" d="M37.54,11.76A1.59,1.59,0,1,0,36,10.17,1.59,1.59,0,0,0,37.54,11.76Z"/><path class="cls-11" d="M74.13,19H36.76a1,1,0,0,1-.33-.06.8.8,0,0,1-.27-.18,1.07,1.07,0,0,1-.19-.28.87.87,0,0,1-.06-.32,1,1,0,0,1,.06-.33,1,1,0,0,1,.46-.46,1,1,0,0,1,.33-.06H74.13a.85.85,0,0,1,.85.85.86.86,0,0,1-.25.6A.83.83,0,0,1,74.13,19Z"/><path class="cls-11" d="M62,15.36H36.76a1,1,0,0,1-.33-.07.8.8,0,0,1-.27-.18.92.92,0,0,1-.19-.28.87.87,0,0,1-.06-.32,1,1,0,0,1,.06-.33,1,1,0,0,1,.19-.27.8.8,0,0,1,.27-.18.78.78,0,0,1,.33-.07H62a.86.86,0,0,1,.6.25.87.87,0,0,1,.24.6.89.89,0,0,1-.24.6A.86.86,0,0,1,62,15.36Z"/></g></svg>