<svg id="Capa_1" data-name="Capa 1" xmlns="http://www.w3.org/2000/svg" xmlns:xlink="http://www.w3.org/1999/xlink" viewBox="0 0 177.16 133.23"><defs><style>.cls-1{fill:none;}.cls-2{clip-path:url(#clip-path);}.cls-3{fill:#f0f0f0;}.cls-4{fill:#fff;}.cls-5{fill:#e4e4e4;}.cls-6{fill:#ff948a;}.cls-7{fill:#3f3d56;}.cls-8{fill:#cacaca;}.cls-9{fill:#ffb8b8;}.cls-10{fill:#2f2e41;}</style><clipPath id="clip-path"><rect class="cls-1" x="-32.44" y="0.61" width="232" height="132"/></clipPath></defs><title>2</title><g class="cls-2"><path class="cls-3" d="M175,112.12c-.84-6.76-5-13.42-11.45-15.62a31.54,31.54,0,0,1,0,21.55c-1,2.68-2.37,5.56-1.44,8.26a7,7,0,0,0,3.57,3.77,21.27,21.27,0,0,0,5.07,1.56l.34.28C173.89,125.69,175.87,118.88,175,112.12Z"/><path class="cls-4" d="M163.52,96.63a26.85,26.85,0,0,1,6.66,15.1,11.52,11.52,0,0,1-.14,3.61,6.6,6.6,0,0,1-1.64,3.08,13.56,13.56,0,0,0-2.12,2.54,3.94,3.94,0,0,0-.45,1.64,4,4,0,0,0,.25,1.68,10.59,10.59,0,0,0,2.33,3.48,10.51,10.51,0,0,1,2.59,3.87c.05.19.34.09.28-.09-.77-2.67-3.35-4.18-4.58-6.58a4.11,4.11,0,0,1-.28-3.61,10.66,10.66,0,0,1,2.11-2.63,7,7,0,0,0,1.71-2.94,10.4,10.4,0,0,0,.27-3.6,26,26,0,0,0-1.89-7.91,27.18,27.18,0,0,0-4.9-7.86c-.13-.15-.32.08-.2.22Z"/><path class="cls-4" d="M170.09,109.91a4,4,0,0,0,2.31-1.54,4.05,4.05,0,0,0,.75-2.67.15.15,0,0,0-.3,0,3.75,3.75,0,0,1-.7,2.49,3.79,3.79,0,0,1-2.15,1.43C169.81,109.67,169.91,110,170.09,109.91Z"/><path class="cls-4" d="M168.83,118.05a7.74,7.74,0,0,1-3.45-4.46.15.15,0,0,0-.29.09,8.05,8.05,0,0,0,3.61,4.64C168.86,118.42,169,118.15,168.83,118.05Z"/><path class="cls-4" d="M167.17,101.67a2.18,2.18,0,0,1-1.09.22,2.38,2.38,0,0,1-1.07-.32c-.16-.11-.29.16-.13.26a2.46,2.46,0,0,0,1.17.36,2.41,2.41,0,0,0,1.21-.23.14.14,0,0,0,.09-.08.2.2,0,0,0,0-.11.18.18,0,0,0-.08-.09A.2.2,0,0,0,167.17,101.67Z"/><path class="cls-3" d="M144,108.58l.3.2a30.57,30.57,0,0,1,3.83,3l.27.26a31.66,31.66,0,0,1,6.86,9.4,31,31,0,0,1,1.67,4.35c.62,2.06,1.13,4.35,2.36,6a4,4,0,0,0,.41.51h11.07l.08,0,.44,0a2,2,0,0,1-.05-.24l0-.13a.29.29,0,0,0,0-.09v0a.24.24,0,0,1,0-.08c-.11-.45-.23-.91-.35-1.36h0a45.16,45.16,0,0,0-3.79-10l-.16-.29a29.18,29.18,0,0,0-2.62-4c-.54-.68-1.12-1.34-1.72-2a21.44,21.44,0,0,0-5.38-4,17,17,0,0,0-12.82-1.62Z"/><path class="cls-4" d="M144,108.72a26.73,26.73,0,0,1,14.38,8,11.51,11.51,0,0,1,2.07,3,6.69,6.69,0,0,1,.53,3.45,14.15,14.15,0,0,0-.17,3.31,4.18,4.18,0,0,0,.62,1.58,4.07,4.07,0,0,0,1.22,1.19,10.4,10.4,0,0,0,4,1.37,10.48,10.48,0,0,1,4.39,1.53c.15.12.32-.13.17-.24-2.22-1.67-5.19-1.32-7.61-2.49a4.09,4.09,0,0,1-2.39-2.71,10.6,10.6,0,0,1,.1-3.37,7.11,7.11,0,0,0-.39-3.39,10.6,10.6,0,0,0-1.95-3,26.16,26.16,0,0,0-6.26-5.17,27.37,27.37,0,0,0-8.64-3.32c-.19,0-.21.26,0,.3Z"/><path class="cls-4" d="M157.23,115.35a4,4,0,0,0,.91-2.62,4,4,0,0,0-1-2.59c-.13-.14-.36,0-.23.2a3.74,3.74,0,0,1,.08,4.84C156.86,115.33,157.11,115.5,157.23,115.35Z"/><path class="cls-4" d="M161.11,122.62a7.75,7.75,0,0,1-5.44-1.48c-.15-.12-.32.13-.17.24a8,8,0,0,0,5.67,1.53C161.36,122.89,161.3,122.6,161.11,122.62Z"/><path class="cls-4" d="M150,110.54a2.25,2.25,0,0,1-1.79,1.22c-.19,0-.13.31.06.29a2.51,2.51,0,0,0,1.15-.42,2.59,2.59,0,0,0,.83-.91.25.25,0,0,0,0-.12.18.18,0,0,0-.06-.09.17.17,0,0,0-.11,0A.17.17,0,0,0,150,110.54Z"/><path class="cls-5" d="M160,31A4.06,4.06,0,1,0,155.94,27,4,4,0,0,0,160,31Z"/><path class="cls-5" d="M162.5,26.64H119.75v.51H162.5Z"/><path class="cls-5" d="M121.83,26.2H82.33v.51h39.5Z"/><path class="cls-5" d="M71.08,26.2H31.25v.51H71.08Z"/><path class="cls-5" d="M19.53,25.71H1v.93H19.53Z"/><path class="cls-6" d="M27,33.42a5.71,5.71,0,0,1-5.26-3.51,5.71,5.71,0,0,1,4.15-7.78,5.68,5.68,0,0,1,6.79,5.59A5.68,5.68,0,0,1,27,33.42Z"/><path class="cls-7" d="M25.69,32.28a5.81,5.81,0,0,1-5.37-3.59,5.82,5.82,0,0,1,7.6-7.62,5.84,5.84,0,0,1,3.59,5.39,5.91,5.91,0,0,1-1.71,4.12A5.81,5.81,0,0,1,25.69,32.28Zm0-11.14a5.27,5.27,0,0,0-4.9,3.28,5.35,5.35,0,0,0,1.15,5.8,5.37,5.37,0,0,0,2.72,1.46,5.26,5.26,0,0,0,3.06-.31,5.32,5.32,0,0,0-2-10.23Z"/><path class="cls-4" d="M25.57,28.23a.39.39,0,0,1-.27-.11L23.15,26a.35.35,0,0,1-.08-.13.32.32,0,0,1,0-.14.4.4,0,0,1,0-.15.25.25,0,0,1,.08-.12.34.34,0,0,1,.12-.09l.15,0a.32.32,0,0,1,.14,0,.26.26,0,0,1,.13.08l1.88,1.88,3.74-3.75a.36.36,0,0,1,.26-.11.36.36,0,0,1,.27.12.36.36,0,0,1,.11.26.39.39,0,0,1-.11.27l-4,4A.36.36,0,0,1,25.57,28.23Z"/><path class="cls-6" d="M78,33.42a5.68,5.68,0,0,1-5.25-3.51,5.69,5.69,0,0,1,7.43-7.45,5.63,5.63,0,0,1,2.55,2.1A5.7,5.7,0,0,1,78,33.42Z"/><path class="cls-7" d="M76.75,32.28a5.82,5.82,0,0,1-5.7-7,5.72,5.72,0,0,1,1.59-3,5.82,5.82,0,1,1,4.11,9.94Zm0-11.14a5.33,5.33,0,0,0-3,.89,5.45,5.45,0,0,0-2,2.39,5.33,5.33,0,0,0,3.87,7.26,5.29,5.29,0,0,0,3.07-.31,5.24,5.24,0,0,0,2.38-2,5.32,5.32,0,0,0-4.41-8.27Z"/><path class="cls-4" d="M76.62,28.23a.39.39,0,0,1-.27-.11L74.2,26a.57.57,0,0,1-.08-.13.32.32,0,0,1,0-.14.4.4,0,0,1,0-.15.36.36,0,0,1,.08-.12.38.38,0,0,1,.13-.09l.14,0a.4.4,0,0,1,.15,0,.23.23,0,0,1,.12.08l1.88,1.88,3.74-3.75.12-.08a.4.4,0,0,1,.15,0,.32.32,0,0,1,.14,0,.33.33,0,0,1,.21.21.32.32,0,0,1,0,.14A.4.4,0,0,1,81,24a.5.5,0,0,1-.08.12l-4,4A.39.39,0,0,1,76.62,28.23Z"/><path class="cls-3" d="M111.47,33.57a5.67,5.67,0,0,1-5.25-3.52,5.7,5.7,0,0,1,4.14-7.78,5.7,5.7,0,0,1,3.29.33,5.7,5.7,0,0,1,1.84,9.29A5.71,5.71,0,0,1,111.47,33.57Z"/><path class="cls-8" d="M110.21,32.43a5.82,5.82,0,1,1,4.11-1.71A5.82,5.82,0,0,1,110.21,32.43Zm0-11.15a5.32,5.32,0,1,0,2,10.23,5.34,5.34,0,0,0,3.28-4.91A5.36,5.36,0,0,0,114,22.84,5.27,5.27,0,0,0,110.21,21.28Z"/><path class="cls-6" d="M106.56,56.12A5.71,5.71,0,0,1,101,49.31a5.7,5.7,0,0,1,4.47-4.48,5.66,5.66,0,0,1,5.84,2.42,5.76,5.76,0,0,1,1,3.17,5.7,5.7,0,0,1-5.69,5.7Z"/><path class="cls-4" d="M106.18,52.19a.39.39,0,0,1-.27-.11l-2.14-2.15a.36.36,0,0,1,0-.54.36.36,0,0,1,.26-.11.39.39,0,0,1,.27.11l1.88,1.88,3.74-3.74a.35.35,0,0,1,.27-.11.39.39,0,0,1,.27.11.36.36,0,0,1,.11.26.37.37,0,0,1-.11.27l-4,4A.39.39,0,0,1,106.18,52.19Z"/><path class="cls-9" d="M119.26,129.63l-3.06-.47.37-12.07,4.52.7Z"/><path class="cls-10" d="M119.58,132.73l-9.87-1.53,0-.13a3.87,3.87,0,0,1,4.43-3.25h0l6,.93Z"/><path class="cls-9" d="M151.44,129.33l-3.09.13-2-11.91,4.57-.19Z"/><path class="cls-10" d="M152.36,132.3l-10,.43v-.13a3.9,3.9,0,0,1,3.72-4.06h0l6.1-.26Z"/><path class="cls-9" d="M145.35,58.34a2.11,2.11,0,0,1,.45-.08l-1.93-15.84-6.55-13.9a3.8,3.8,0,0,1-.19-2.79,3.81,3.81,0,0,1,6.82-.94h0a30.32,30.32,0,0,1,3.85,8.52l2.75,10-2,17.1a2.57,2.57,0,0,1-.19,1.42,2.39,2.39,0,0,1-.92,1.09,2.48,2.48,0,0,1-1.37.42,2.54,2.54,0,0,1-2.32-1.48,2.54,2.54,0,0,1,1.61-3.49Z"/><path class="cls-10" d="M135.77,28.49a5.26,5.26,0,0,1,9.78-3.88l4.1,9.67-8.28,9.48Z"/><path class="cls-10" d="M129.42,30.15,135,20.77c3.84-2.52,7-.87,8.68,3.41a26.69,26.69,0,0,1,1.93,13.31c-1.51,10.91-2.78,12.16-2.78,12.16s9.48,10.52,7.46,23.95l1.52,50.67-4.55-.25-6.32-29.14-4.8-18.24-8.35,22.29-7.33,25.85-5-1,3-28.63,4.3-32.93,4.93-12.55-2.4-8.74S122.47,34.83,129.42,30.15Z"/><path class="cls-9" d="M110.94,43.53a3.18,3.18,0,0,1,.27.37l13.27-8.81L134,23a3.82,3.82,0,0,1,6.72,1.51,3.88,3.88,0,0,1-.42,2.77,30,30,0,0,1-5.88,7.25l-7.67,6.93L110.55,47.3a2.47,2.47,0,0,1-1.35.47,2.42,2.42,0,0,1-1.39-.34,2.48,2.48,0,0,1-1-1,2.53,2.53,0,0,1-.26-1.41,2.57,2.57,0,0,1,1.72-2.14,2.52,2.52,0,0,1,2.66.69Z"/><path class="cls-10" d="M133.3,21.61a5.26,5.26,0,0,1,7.83,7l-6.79,8-12.17-3.19Z"/><path class="cls-9" d="M137.82,16.52a7.53,7.53,0,1,0-10.2-3A7.55,7.55,0,0,0,137.82,16.52Z"/><path class="cls-10" d="M133,.76h4.85c3.18,0,5.76,2.9,5.76,6.49L143.35,16a37.76,37.76,0,0,0-10,2.68l-.45-1.94L132,19.25c-.8.39-1.59.81-2.37,1.27.91-4.3,1.29-8.58.66-11.91h-1.64V6.81l-.56,1.8h-3A7.9,7.9,0,0,1,130,1.35,7.9,7.9,0,0,1,133,.76Z"/><path class="cls-8" d="M172.69,131.64H6.18a.41.41,0,0,0-.31.14.49.49,0,0,0-.13.35.47.47,0,0,0,.13.34.41.41,0,0,0,.31.14H172.69a.41.41,0,0,0,.31-.14.51.51,0,0,0,.13-.34.54.54,0,0,0-.13-.35A.41.41,0,0,0,172.69,131.64Z"/><path class="cls-7" d="M25.69,60.91a.26.26,0,0,1-.18-.07.29.29,0,0,1-.07-.18V32.28a.24.24,0,0,1,.25-.25.29.29,0,0,1,.18.07.27.27,0,0,1,.08.18V60.66a.25.25,0,0,1-.08.18A.24.24,0,0,1,25.69,60.91Z"/><path class="cls-5" d="M7.87,65.32a1.61,1.61,0,1,0,0,3.21H43.53a1.61,1.61,0,0,0,0-3.21Z"/><path class="cls-5" d="M17.43,72.94a1.67,1.67,0,0,0-.62.12,1.8,1.8,0,0,0-.52.34,1.62,1.62,0,0,0-.47,1.14,1.67,1.67,0,0,0,.12.62,1.64,1.64,0,0,0,.35.52,1.54,1.54,0,0,0,.52.35,1.58,1.58,0,0,0,.61.12H34a1.61,1.61,0,0,0,0-3.21Z"/><path class="cls-5" d="M59.68,65.32a1.63,1.63,0,0,0-1.14.47,1.61,1.61,0,0,0,0,2.27,1.63,1.63,0,0,0,1.14.47H95.34a1.59,1.59,0,0,0,1.13-.47,1.61,1.61,0,0,0,0-2.27,1.59,1.59,0,0,0-1.13-.47Z"/><path class="cls-5" d="M69.24,72.94a1.63,1.63,0,0,0-1.61,1.6,1.67,1.67,0,0,0,.12.62,1.63,1.63,0,0,0,.87.87,1.58,1.58,0,0,0,.61.12H85.78a1.61,1.61,0,0,0,0-3.21Z"/><path class="cls-7" d="M77.51,60.91a.23.23,0,0,1-.18-.07.25.25,0,0,1-.08-.18V32.28a.26.26,0,0,1,.26-.25.26.26,0,0,1,.17.07.27.27,0,0,1,.08.18V60.66a.25.25,0,0,1-.08.18A.22.22,0,0,1,77.51,60.91Z"/></g></svg>