<svg id="Capa_1" data-name="Capa 1" xmlns="http://www.w3.org/2000/svg" viewBox="0 0 180.26 133.23"><defs><style>.cls-1{fill:#f2f2f2;}.cls-2{fill:#fff;}.cls-3{fill:#e6e6e6;}.cls-4{fill:#ff948a;}.cls-5{fill:#ffb6b6;}.cls-6{fill:#2f2e41;}.cls-7{fill:#cacaca;}</style></defs><title>3</title><path class="cls-1" d="M61.24,125.84a.74.74,0,0,1-.46-.12.8.8,0,0,1-.31-.37.76.76,0,0,1,0-.47.85.85,0,0,1,.24-.42l.05-.22,0,0a2.12,2.12,0,0,0-3.16-.94,2.07,2.07,0,0,0-.79,1A18.62,18.62,0,0,0,55.07,129a6.38,6.38,0,0,0,.11,2.18A25.25,25.25,0,0,1,53,117.85c.08-.74.2-1.48.35-2.21a25.57,25.57,0,0,1,5.1-10.9,6.82,6.82,0,0,0,2.84-3,5.18,5.18,0,0,0,.48-1.42,6.6,6.6,0,0,1-.42-2.23c-.19-.29-.54-.43-.75-.72-1-1.42-2.49-1.17-3.25.76-1.61.81-1.62,2.16-.64,3.46.63.82.72,1.94,1.27,2.82a1.84,1.84,0,0,1-.17.22,25.71,25.71,0,0,0-2.7,4.28,10.92,10.92,0,0,0-.64-5,18.06,18.06,0,0,0-2.79-4A2.21,2.21,0,0,0,47.77,101v.06c.15.08.29.17.44.27a1.08,1.08,0,0,1,.45,1.13,1,1,0,0,1-.31.56,1.06,1.06,0,0,1-.58.28h0a10.84,10.84,0,0,0,.28,1.61c-1.3,5,1.51,6.87,5.53,6.95l.26.14a26.43,26.43,0,0,0-1.42,6.69,24.89,24.89,0,0,0,0,4.05v-.05a6.59,6.59,0,0,0-2.26-3.82c-1.74-1.43-4.2-2-6.07-3.11a1.24,1.24,0,0,0-.67-.19,1.21,1.21,0,0,0-.67.19,1.25,1.25,0,0,0-.57,1.21V117c.28.12.55.25.82.39l.44.28a1.07,1.07,0,0,1,.4.49,1.08,1.08,0,0,1,0,.64,1,1,0,0,1-.31.56,1.11,1.11,0,0,1-.58.27h-.07a10.67,10.67,0,0,0,2,3.1c.81,4.4,4.31,4.81,8,3.53h0a26.17,26.17,0,0,0,1.77,5.18h6.34l.06-.21a6.87,6.87,0,0,1-1.75-.11l1.41-1.73,0,0,.72-.88h0a10.63,10.63,0,0,0-.31-2.69Z"/><path class="cls-1" d="M138.38,67.57H5.59a4.32,4.32,0,0,1-3.15-1.43,5.12,5.12,0,0,1-1.31-3.45V5.86A5.08,5.08,0,0,1,2.44,2.42,4.28,4.28,0,0,1,5.59,1H138.38a4.3,4.3,0,0,1,3.15,1.43,5.08,5.08,0,0,1,1.31,3.44V62.69a5.12,5.12,0,0,1-1.31,3.45A4.33,4.33,0,0,1,138.38,67.57Z"/><path class="cls-2" d="M107.63,64.71H27.46a21.48,21.48,0,0,1-15.92-7.33A26.43,26.43,0,0,1,4.93,39.72V28.83a26.47,26.47,0,0,1,6.61-17.66A21.51,21.51,0,0,1,27.46,3.84h90a21.54,21.54,0,0,1,15.93,7.33A26.46,26.46,0,0,1,140,28.83a38,38,0,0,1-9.48,25.36A30.86,30.86,0,0,1,107.63,64.71Z"/><path class="cls-3" d="M81.8,20.32H23.69a1.26,1.26,0,0,1-1.25-1.26,1.26,1.26,0,0,1,1.25-1.25H81.8a1.26,1.26,0,0,1,1.25,1.25,1.26,1.26,0,0,1-1.25,1.26Z"/><path class="cls-3" d="M111.21,33.69H23.69a1.26,1.26,0,0,1-.88-.37,1.24,1.24,0,0,1-.37-.89,1.26,1.26,0,0,1,1.25-1.25h87.52a1.25,1.25,0,0,1,1.25,1.25,1.27,1.27,0,0,1-.36.89A1.3,1.3,0,0,1,111.21,33.69Z"/><path class="cls-3" d="M111.21,47.06H23.69a1.26,1.26,0,0,1-.88-.37,1.24,1.24,0,0,1-.37-.89,1.26,1.26,0,0,1,1.25-1.25h87.52a1.25,1.25,0,0,1,1.25,1.25,1.27,1.27,0,0,1-.36.89A1.3,1.3,0,0,1,111.21,47.06Z"/><path class="cls-3" d="M111.21,47.06H23.69a1.26,1.26,0,0,1-.88-.37,1.24,1.24,0,0,1-.37-.89,1.26,1.26,0,0,1,1.25-1.25h87.52a1.25,1.25,0,0,1,1.25,1.25,1.27,1.27,0,0,1-.36.89A1.3,1.3,0,0,1,111.21,47.06Z"/><path class="cls-3" d="M102.74,24.06a20,20,0,0,1,6-11.3.92.92,0,0,1,.57-.47,1,1,0,0,1,.74.07l8.53,4.5a1,1,0,0,1,.48.58,1,1,0,0,1-.07.74l-6,11.3a1,1,0,0,1-1.32.4l-8.52-4.5a1,1,0,0,1-.48-.58A1,1,0,0,1,102.74,24.06Z"/><path class="cls-2" d="M105.2,21c.1-2.28,1.76-4.74,3.83-7.26a.91.91,0,0,1,.54-.44.9.9,0,0,1,.7.06l7.33,3.87a.93.93,0,0,1,.38,1.24l-5.31,10.05a.94.94,0,0,1-.54.44.9.9,0,0,1-.7-.06l-4.54-2.4A4.08,4.08,0,0,1,105.2,21Z"/><path class="cls-4" d="M113.8,22.45l-5.72-3a.39.39,0,0,1-.19-.23.37.37,0,0,1,0-.29.38.38,0,0,1,.22-.19.39.39,0,0,1,.3,0l5.72,3a.39.39,0,0,1,.19.23.37.37,0,0,1,0,.29.35.35,0,0,1-.22.19A.44.44,0,0,1,113.8,22.45Z"/><path class="cls-4" d="M110.33,18.22l-1.26-.66a.29.29,0,0,1-.12-.1.33.33,0,0,1-.07-.13.26.26,0,0,1,0-.15.42.42,0,0,1,0-.15.52.52,0,0,1,.1-.11.35.35,0,0,1,.13-.08.38.38,0,0,1,.15,0,.42.42,0,0,1,.15,0l1.26.66a.39.39,0,0,1-.07.72A.37.37,0,0,1,110.33,18.22Z"/><path class="cls-4" d="M112.22,25.47l-5.73-3a.38.38,0,0,1-.18-.23.33.33,0,0,1,0-.29.39.39,0,0,1,.23-.19.37.37,0,0,1,.29,0l5.73,3a.39.39,0,0,1,.19.23.37.37,0,0,1,0,.29.39.39,0,0,1-.23.19A.41.41,0,0,1,112.22,25.47Z"/><path class="cls-4" d="M113,24l-5.72-3a.27.27,0,0,1-.12-.09.37.37,0,0,1-.07-.14.25.25,0,0,1,0-.15.33.33,0,0,1,0-.14.4.4,0,0,1,.1-.12.33.33,0,0,1,.13-.07.39.39,0,0,1,.15,0,.44.44,0,0,1,.15.05l5.72,3a.39.39,0,0,1,.19.23.37.37,0,0,1,0,.29.41.41,0,0,1-.22.19A.44.44,0,0,1,113,24Z"/><path class="cls-1" d="M164.41,100.71h-3a1,1,0,0,0-.75.31,1.08,1.08,0,0,0-.23.34,1,1,0,0,0-.08.41,1.07,1.07,0,0,1-.32.76,1.06,1.06,0,0,1-.75.31h-9.87a1.15,1.15,0,0,1-.41-.08,1.36,1.36,0,0,1-.34-.23,1,1,0,0,1-.23-.35,1,1,0,0,1-.09-.41l-.19-1.08v0l-1.79-2.28a.55.55,0,0,0-.22-.18.67.67,0,0,0-.28-.06h-3.35a.67.67,0,0,0-.45.18.63.63,0,0,0-.18.45l-.07,1.89h-1.27a1.91,1.91,0,0,0-.78.16,2,2,0,0,0-.66.44,2,2,0,0,0-.59,1.43v13.22a1.76,1.76,0,0,0,.14.68,1.79,1.79,0,0,0,.39.59,1.65,1.65,0,0,0,.58.39,1.81,1.81,0,0,0,.69.14h24.06a1.81,1.81,0,0,0,1.28-.53,1.84,1.84,0,0,0,.52-1.27V102.51a1.8,1.8,0,0,0-.13-.69,1.77,1.77,0,0,0-1-1A1.8,1.8,0,0,0,164.41,100.71Z"/><path class="cls-3" d="M148.19,100.64h-6.27V98.75a.63.63,0,0,1,.18-.45.67.67,0,0,1,.45-.18h3.35a.67.67,0,0,1,.28.06.55.55,0,0,1,.22.18Z"/><path class="cls-2" d="M151.4,116.28H140.93a1.27,1.27,0,0,1-.89-.36,1.35,1.35,0,0,1-.37-.89v-2.86a1.33,1.33,0,0,1,.37-.89,1.28,1.28,0,0,1,.89-.37H153.5a1.26,1.26,0,0,1,.88.37,1.24,1.24,0,0,1,.37.89v.76a3.35,3.35,0,0,1-3.35,3.35Z"/><path class="cls-1" d="M143.94,113.08h-2.58a.64.64,0,0,1-.45-1.09.63.63,0,0,1,.45-.18h2.58a.63.63,0,0,1,.45.18.64.64,0,0,1-.45,1.09Z"/><path class="cls-1" d="M152.72,115.08H141.36a.7.7,0,0,1-.25,0,.7.7,0,0,1-.34-.34.7.7,0,0,1-.05-.25.69.69,0,0,1,.05-.24.6.6,0,0,1,.14-.21.63.63,0,0,1,.2-.13.53.53,0,0,1,.25,0h11.36a.67.67,0,0,1,.45.18.64.64,0,0,1-.45,1.09Z"/><path class="cls-1" d="M174.93,115.21h-3a1,1,0,0,0-.41.08.89.89,0,0,0-.34.23,1.16,1.16,0,0,0-.24.34,1.15,1.15,0,0,0-.08.41,1,1,0,0,1-.31.75,1,1,0,0,1-.75.32H160a1.15,1.15,0,0,1-.41-.08,1.21,1.21,0,0,1-.35-.24,1,1,0,0,1-.23-.34,1.15,1.15,0,0,1-.08-.41l-.19-1.08v0l-1.79-2.28a.63.63,0,0,0-.22-.18.67.67,0,0,0-.28-.06h-3.36a.62.62,0,0,0-.44.18.64.64,0,0,0-.19.45l-.07,1.89H151.1a1.91,1.91,0,0,0-.78.16,2.09,2.09,0,0,0-.66.43,2,2,0,0,0-.59,1.44v13.22a1.75,1.75,0,0,0,.13.68,2,2,0,0,0,.39.59,1.79,1.79,0,0,0,.59.39,1.81,1.81,0,0,0,.69.14h24.06a1.81,1.81,0,0,0,1.8-1.8V117a1.81,1.81,0,0,0-.14-.69,1.76,1.76,0,0,0-1.66-1.11Z"/><path class="cls-3" d="M158.71,115.14h-6.28v-1.89a.64.64,0,0,1,.19-.45.67.67,0,0,1,.44-.18h3.36a.67.67,0,0,1,.28.06.76.76,0,0,1,.22.18Z"/><path class="cls-2" d="M161.92,130.78H151.44a1.26,1.26,0,0,1-1.25-1.25v-2.86a1.24,1.24,0,0,1,.37-.89,1.26,1.26,0,0,1,.88-.37H164a1.26,1.26,0,0,1,.88.37,1.24,1.24,0,0,1,.37.89v.76a3.39,3.39,0,0,1-1,2.37A3.34,3.34,0,0,1,161.92,130.78Z"/><path class="cls-1" d="M154.46,127.58h-2.59a.6.6,0,0,1-.44-.19.63.63,0,0,1,0-.9.59.59,0,0,1,.44-.18h2.59a.64.64,0,0,1,.45,1.08A.64.64,0,0,1,154.46,127.58Z"/><path class="cls-1" d="M163.24,129.58H151.87a.69.69,0,0,1-.24-.05.6.6,0,0,1-.21-.14.74.74,0,0,1-.13-.21.49.49,0,0,1,0-.24.52.52,0,0,1,0-.24.74.74,0,0,1,.13-.21.57.57,0,0,1,.21-.13.52.52,0,0,1,.24-.05h11.37a.63.63,0,0,1,.45.18.64.64,0,0,1-.45,1.09Z"/><path class="cls-5" d="M127.9,127.26h-2.45l-1.16-9.43h3.61Z"/><path class="cls-6" d="M120.52,130.87a1,1,0,0,0,1,1h4.61l.14-.29.65-1.35.25,1.35.06.29H129l0-.3-.46-5.55-.61,0-2.62-.16-.64,0v1.66C124.15,128,120.33,130,120.52,130.87Z"/><path class="cls-5" d="M168.37,108.38l-1.18,2.14L158.38,107l1.74-3.16Z"/><path class="cls-6" d="M168,116.58a1,1,0,0,0,1.4-.4l2.23-4-.19-.27-.87-1.22,1.3.43.29.09.84-1.52-.28-.12-5.08-2.28-.32.51-1.4,2.22-.35.54,1.45.8C167.21,112,167.08,116.31,168,116.58Z"/><path class="cls-6" d="M132,65.1,141.23,69s3,6.31.91,7.21V92.92l21.1,12.21-6.36,10.63s-8.17-2.11-8.08-4,1-2.68-1.78-2.93-4.39,0-4.31-1.76-9.9-10.65-9.9-10.65Z"/><path class="cls-6" d="M134.2,68.31l-2.34-2.64s-5.26,8.64-5.24,10.42S122.15,87,122.15,87l-5.56,32.66s10.73,2.55,11.56,2.62,2.21.5,1.34-1.15,0-1.65,0-1.65L130,94.35l4.17-17.3Z"/><path class="cls-4" d="M133,43l4.49-1.08,2.59,3.19A9.6,9.6,0,0,1,142.91,54l-2.4,12.37s4.3,4,3.77,6.11c-.88,3.49-10.5.4-12.16.65s-3.81-2.44-4.17-4,1.11-5.2,1.62-5.12-1.41-7.59-1.41-7.59.15-5.15,1.94-6.58a10,10,0,0,0,2.63-3.29Z"/><path class="cls-5" d="M113.5,23.61a2.35,2.35,0,0,0,.2.87,2.12,2.12,0,0,0,.55.71,2.25,2.25,0,0,0,.8.41,2.05,2.05,0,0,0,.89,0l5.65,8.71,2.79-1-6.78-10.3a2.14,2.14,0,0,0-.85-1.21,2,2,0,0,0-1.43-.34,2.08,2.08,0,0,0-1.31.69,2.15,2.15,0,0,0-.51,1.39Z"/><path class="cls-4" d="M136.14,54s2.13-4.55.51-6.58-2.8-4.08-3.7-4.63-4.52-7-5.42-7.21-.21-1.23-1.48-1.8-1.63-.56-1.63-.93a52,52,0,0,0-3.09-4.74l-3.19,2L125.93,46Z"/><path class="cls-3" d="M116.06,96.58a30.52,30.52,0,0,1-6.51-18.39,1.5,1.5,0,0,1,.06-1.14,1.45,1.45,0,0,1,.85-.76l13.89-4.92a1.48,1.48,0,0,1,1.9.91l6.51,18.39a1.5,1.5,0,0,1-.06,1.14,1.53,1.53,0,0,1-.85.77L118,97.49a1.5,1.5,0,0,1-1.14-.06A1.45,1.45,0,0,1,116.06,96.58Z"/><path class="cls-2" d="M115.16,90.65c-2.46-2.48-3.5-6.9-4.19-11.83a1.41,1.41,0,0,1,.85-1.78l11.94-4.22a1.42,1.42,0,0,1,1.07.06,1.35,1.35,0,0,1,.71.79L131.33,90a1.35,1.35,0,0,1-.05,1.06,1.38,1.38,0,0,1-.8.72l-7.39,2.62a6.23,6.23,0,0,1-7.93-3.79Z"/><path class="cls-4" d="M125.7,82.49l-9.3,3.32a.59.59,0,0,1-.45,0,.59.59,0,0,1-.31-.33.59.59,0,0,1,0-.45.53.53,0,0,1,.33-.31l9.3-3.32a.46.46,0,0,1,.23,0,.59.59,0,0,1,.23,0,.62.62,0,0,1,.18.14.82.82,0,0,1,.12.2.45.45,0,0,1,0,.23.54.54,0,0,1,0,.22.67.67,0,0,1-.14.19A.82.82,0,0,1,125.7,82.49Z"/><path class="cls-4" d="M117.35,82l-2,.73a.59.59,0,0,1-.45,0,.56.56,0,0,1-.31-.33.66.66,0,0,1,0-.46.59.59,0,0,1,.34-.3l2-.73a.64.64,0,0,1,.45,0,.59.59,0,0,1,.3.34.54.54,0,0,1,0,.45A.65.65,0,0,1,117.35,82Z"/><path class="cls-4" d="M127.45,87.39l-9.3,3.32a.59.59,0,0,1-.23,0,.9.9,0,0,1-.22-.06.62.62,0,0,1-.19-.14.62.62,0,0,1-.12-.19,1,1,0,0,1,0-.23.6.6,0,0,1,.06-.23.49.49,0,0,1,.14-.18.39.39,0,0,1,.19-.12l9.3-3.32a.66.66,0,0,1,.23,0,.86.86,0,0,1,.23.06.49.49,0,0,1,.18.14.51.51,0,0,1,.12.2.59.59,0,0,1,0,.23.9.9,0,0,1-.06.22.85.85,0,0,1-.14.19A.49.49,0,0,1,127.45,87.39Z"/><path class="cls-4" d="M126.58,84.94l-9.3,3.32a.46.46,0,0,1-.23,0,.59.59,0,0,1-.23-.05.62.62,0,0,1-.18-.14.82.82,0,0,1-.12-.2.45.45,0,0,1,0-.23.59.59,0,0,1,.05-.22.85.85,0,0,1,.14-.19.82.82,0,0,1,.2-.12l9.3-3.32a.59.59,0,0,1,.45,0,.59.59,0,0,1,0,1.09Z"/><path class="cls-5" d="M133.52,41.39a4.82,4.82,0,1,0-4.82-4.82A4.81,4.81,0,0,0,133.52,41.39Z"/><path class="cls-6" d="M128.45,35.94a1.42,1.42,0,0,0,.87.24,3.83,3.83,0,0,0,0-1.12,4.37,4.37,0,0,1,.4,1.06c.86-.19.82-.44,1.7-.31a1.8,1.8,0,0,1,.68.29,2,2,0,0,1,.5.54,1.77,1.77,0,0,1,.24.7,1.81,1.81,0,0,1,0,.73c.19-.41,1-.22,1.09.25a1.77,1.77,0,0,1-.45,1.41c-1,1.51,1.63,4.3.6,5.81l-.14.17a15.14,15.14,0,0,0,2.54-1.65,4.9,4.9,0,0,1-.07-1.83,2.29,2.29,0,0,0,.78,1.28c2.9-2.28,6.4-5.56,5.76-6.36l-2-3.45c-2.06-3.62-7-5.08-10.09-2.27-.08.08-.26,0-.34.11A5.06,5.06,0,0,0,128,32.89,2.62,2.62,0,0,0,128.45,35.94Z"/><path class="cls-3" d="M132.22,73.24a20,20,0,0,1-9-9.12,1,1,0,0,1-.28-.69,1.05,1.05,0,0,1,.29-.69L130.17,56a.93.93,0,0,1,.69-.27.94.94,0,0,1,.69.29l8.95,9.11a1,1,0,0,1,0,1.38l-6.88,6.76a1,1,0,0,1-1.38,0Z"/><path class="cls-2" d="M130.05,70c-2.14-.8-4-3.13-5.76-5.86a.94.94,0,0,1-.26-.65.88.88,0,0,1,.28-.64L130.22,57a.93.93,0,0,1,.65-.27.92.92,0,0,1,.64.28l8,8.11a.89.89,0,0,1,0,1.29L135.8,70a4.09,4.09,0,0,1-2.89,1.16A4,4,0,0,1,130.05,70Z"/><path class="cls-4" d="M134.05,62.21l-4.6,4.54a.57.57,0,0,1-.13.08.39.39,0,0,1-.3,0,.53.53,0,0,1-.21-.21.4.4,0,0,1,0-.15.83.83,0,0,1,0-.15.25.25,0,0,1,.08-.12l4.6-4.55a.57.57,0,0,1,.13-.08.33.33,0,0,1,.15,0,.32.32,0,0,1,.14,0,.38.38,0,0,1,.13.09.5.5,0,0,1,.08.12.39.39,0,0,1,0,.3A.57.57,0,0,1,134.05,62.21Z"/><path class="cls-4" d="M129,64.24l-1,1a.36.36,0,0,1-.27.12.42.42,0,0,1-.28-.12.39.39,0,0,1-.11-.27.36.36,0,0,1,.12-.28l1-1,.12-.08a.39.39,0,0,1,.3,0,.38.38,0,0,1,.13.09.5.5,0,0,1,.08.12.39.39,0,0,1,0,.3A.38.38,0,0,1,129,64.24Z"/><path class="cls-4" d="M136.44,64.63l-4.6,4.54a.34.34,0,0,1-.12.09.4.4,0,0,1-.15,0l-.15,0a.38.38,0,0,1-.13-.09.5.5,0,0,1-.08-.12.39.39,0,0,1,0-.3.38.38,0,0,1,.09-.13l4.6-4.54A.25.25,0,0,1,136,64a.39.39,0,0,1,.3,0,.36.36,0,0,1,.12.08.38.38,0,0,1,.09.13.39.39,0,0,1,0,.3A.34.34,0,0,1,136.44,64.63Z"/><path class="cls-4" d="M135.24,63.42,130.64,68a.34.34,0,0,1-.12.09l-.15,0a.4.4,0,0,1-.15,0,.33.33,0,0,1-.21-.21.39.39,0,0,1,0-.3.47.47,0,0,1,.09-.12l4.6-4.54a.32.32,0,0,1,.27-.11.41.41,0,0,1,.28.11.39.39,0,0,1,.11.28.36.36,0,0,1-.12.27Z"/><path class="cls-5" d="M125.38,82.68a2.1,2.1,0,0,1,0-.9,2.06,2.06,0,0,1,.39-.8,2.12,2.12,0,0,1,.7-.56,2,2,0,0,1,.87-.22l3.78-9.67,2.93.39L129.5,82.37a2.1,2.1,0,0,1-.58,1.36,2.1,2.1,0,0,1-2.76.2A2.1,2.1,0,0,1,125.38,82.68Z"/><path class="cls-4" d="M141.47,48.38s3,4,1.82,6.34-1.92,4.56-2.7,5.29-3,7.77-3.86,8.14,0,1.26-1.09,2.06-1.48.88-1.41,1.24a51.75,51.75,0,0,1-2.08,5.27l-3.52-1.3,7.5-26.06Z"/><path class="cls-7" d="M178.67,132.24,9,132a.28.28,0,0,1-.21-.1.41.41,0,0,1-.09-.26.37.37,0,0,1,.09-.26.26.26,0,0,1,.21-.11l169.63.21a.27.27,0,0,1,.12,0,.25.25,0,0,1,.1.08.35.35,0,0,1,.07.12.5.5,0,0,1,0,.28.35.35,0,0,1-.07.12.25.25,0,0,1-.1.08Z"/><path class="cls-3" d="M59.54,57.67a20,20,0,0,1-2.81-12.46.94.94,0,0,1,.13-.73.91.91,0,0,1,.6-.43l9.41-2.13a1,1,0,0,1,.74.13,1,1,0,0,1,.43.61l2.81,12.46a1,1,0,0,1-.13.74.94.94,0,0,1-.61.43l-9.4,2.12a1,1,0,0,1-.74-.13A.94.94,0,0,1,59.54,57.67Z"/><path class="cls-2" d="M59.41,53.75C58,52,57.67,49,57.6,45.74a.92.92,0,0,1,.12-.69,1,1,0,0,1,.57-.41l8.09-1.82a.92.92,0,0,1,.69.12.9.9,0,0,1,.4.57L70,54.6a.89.89,0,0,1-.69,1.09l-5,1.13a4,4,0,0,1-3.07-.53A4.1,4.1,0,0,1,59.41,53.75Z"/><path class="cls-4" d="M62.56,47.63a1.12,1.12,0,0,1,.63-.38,1.15,1.15,0,0,1,.73.08,1.16,1.16,0,0,1,.52.55,1.21,1.21,0,0,1,.09.75,17.24,17.24,0,0,0-.42,1.72,1.45,1.45,0,0,0,.64,1.36c.33.2.67-.3.34-.5-.55-.34-.37-1.07-.21-1.58A2.8,2.8,0,0,0,65,47.72a1.76,1.76,0,0,0-.51-.7,1.7,1.7,0,0,0-.78-.36,1.67,1.67,0,0,0-.86.05,1.75,1.75,0,0,0-.73.46C61.89,47.45,62.29,47.91,62.56,47.63Z"/><path class="cls-4" d="M65.24,53.47a.62.62,0,0,0,.61-.61.61.61,0,0,0-.61-.61.61.61,0,0,0-.61.61A.61.61,0,0,0,65.24,53.47Z"/><path class="cls-3" d="M10.71,31A20,20,0,0,1,7.9,18.57,1,1,0,0,1,8,17.83a1,1,0,0,1,.61-.43l9.41-2.12a.94.94,0,0,1,.73.13,1,1,0,0,1,.43.61L22,28.48a1,1,0,0,1-.12.73,1,1,0,0,1-.61.43l-9.41,2.13a1,1,0,0,1-.74-.13A1,1,0,0,1,10.71,31Z"/><path class="cls-2" d="M10.58,27.1c-1.4-1.8-1.74-4.75-1.8-8a.89.89,0,0,1,.12-.69.88.88,0,0,1,.57-.4l8.08-1.82a.92.92,0,0,1,.69.11.89.89,0,0,1,.4.58L21.15,28a.92.92,0,0,1-.12.69,1,1,0,0,1-.57.41l-5,1.13a4.08,4.08,0,0,1-4.87-3.08Z"/><path class="cls-4" d="M14.81,28A.86.86,0,1,0,14,27.1.85.85,0,0,0,14.81,28Z"/><path class="cls-4" d="M15.83,19c-.33-.39-.93-.33-1.43-.23a5.51,5.51,0,0,0-1.49.42,2.06,2.06,0,0,0-.64.45,1.88,1.88,0,0,0-.41.66,2.63,2.63,0,0,0,.27,1.85,12.79,12.79,0,0,0,2,3.11l.41.18a7.69,7.69,0,0,0,1.36-2.71,7.79,7.79,0,0,0,.21-3A1.32,1.32,0,0,0,15.83,19Z"/></svg>