<svg id="Capa_1" data-name="Capa 1" xmlns="http://www.w3.org/2000/svg" viewBox="0 0 170.08 133.23"><defs><style>.cls-1{fill:#ff948a;}.cls-2{fill:#cfcce0;}.cls-3{fill:#f2f2f2;}.cls-4{fill:#2f2e41;}.cls-5{fill:#ffb9b9;}.cls-6{fill:none;stroke:#cacaca;}</style></defs><title>4</title><path class="cls-1" d="M35,75.85a2.8,2.8,0,1,0-2.8-2.8h0A2.81,2.81,0,0,0,35,75.85Z"/><path class="cls-1" d="M47.28,98.87a2.8,2.8,0,1,0-2.8-2.8,2.8,2.8,0,0,0,2.8,2.8Z"/><path class="cls-1" d="M37.8,93.06A2.8,2.8,0,1,0,35,90.27v0A2.81,2.81,0,0,0,37.8,93.06Z"/><path class="cls-2" d="M38.69,130a15.44,15.44,0,0,1-1.62-6.06c-.37-3.7-.13-9.94,3.11-18.64A37.54,37.54,0,0,0,38.69,75.3l.37-.21a32.6,32.6,0,0,1,3.12,8.83,38.38,38.38,0,0,1-1.57,21.48c-6.14,16.46-1.58,24.25-1.53,24.33Z"/><path class="cls-2" d="M36.29,74.56a3,3,0,0,1-2.14-5.14,3,3,0,0,1,1.55-.82,3,3,0,0,1,3.61,3,3,3,0,0,1-3,3Zm0-5.59a2.64,2.64,0,0,0-1.44.43,2.61,2.61,0,0,0-1.1,2.65,2.74,2.74,0,0,0,.71,1.33,2.62,2.62,0,0,0,1.32.7,2.58,2.58,0,1,0,.51-5.1Z"/><path class="cls-2" d="M45.13,84.67a2.8,2.8,0,1,0-2.81-2.79,2.8,2.8,0,0,0,2.81,2.79Z"/><path class="cls-2" d="M39.09,91.77A3,3,0,1,1,40.24,86a2.88,2.88,0,0,1,1.37,1.11,3,3,0,0,1-2.52,4.68Zm0-5.59a2.64,2.64,0,0,0-1.44.43,2.62,2.62,0,0,0-1.1,2.69,2.61,2.61,0,0,0,2,2A2.54,2.54,0,0,0,40,91.15a2.58,2.58,0,0,0-1-5h0Z"/><path class="cls-2" d="M46.42,97.58a3,3,0,0,1-2.15-5.14,3,3,0,0,1,3.28-.66,3,3,0,0,1-1.13,5.79Zm0-5.6A2.59,2.59,0,0,0,44,93.58a2.55,2.55,0,0,0,1.85,3.49,2.54,2.54,0,0,0,1.49-.15,2.57,2.57,0,0,0,1.16-1A2.44,2.44,0,0,0,49,94.49a2.57,2.57,0,0,0-.76-1.83A2.68,2.68,0,0,0,46.42,92Z"/><path class="cls-2" d="M36.93,106.4a2.8,2.8,0,1,0-2.8-2.8A2.8,2.8,0,0,0,36.93,106.4Z"/><path class="cls-2" d="M40.38,130.06s-2.8-6.89,5.61-12Z"/><path class="cls-2" d="M36.94,129.93s-1.28-7.32-11.15-7.26Z"/><path class="cls-1" d="M151.33,130.41H103.62s-1-14.15,4.76-14.31,5.07,6.27,12.25-2.58,15.87-8.36,17-3.13-2.18,9.41,3.87,8.12S156.24,120.6,151.33,130.41Z"/><path class="cls-3" d="M126.67,130.41h-.16c.37-9.34,2.31-15.34,3.91-18.69a16.7,16.7,0,0,1,3.4-5.17l.11.12a16.76,16.76,0,0,0-3.34,5.13C129,115.17,127,121.13,126.67,130.41Z"/><path class="cls-3" d="M143.94,130.43h-.16A25,25,0,0,1,150.07,120l.11.12A24.84,24.84,0,0,0,143.94,130.43Z"/><path class="cls-3" d="M97.93,128.35h-.16a17.49,17.49,0,0,0-1.58-10.24,14.55,14.55,0,0,0-2.49-3.63l.11-.11A14,14,0,0,1,96.33,118,17.61,17.61,0,0,1,97.93,128.35Z"/><path class="cls-2" d="M157.82,130.62H98.48v-.2c0-.5-.79-12.26,3-16.46a4.16,4.16,0,0,1,3.06-1.46,9.15,9.15,0,0,1,5.32,1.6c2.38,1.41,4,2.34,9.67-4.7,6.19-7.64,12.87-9.28,16.71-8.37a6,6,0,0,1,4.69,4.58,20.19,20.19,0,0,1,.2,5.91c-.13,1.78-.23,3.18.5,3.81s1.83.58,3.83.15c4.07-.86,9.75-.12,12.6,3.56,1.54,2,2.75,5.57-.21,11.46Zm-58.92-.43h58.65c2.21-4.45,2.28-8.22.2-10.89-2.61-3.37-8.1-4.26-12.17-3.4-2.18.47-3.47.39-4.2-.24-.9-.78-.79-2.27-.65-4.17a19.72,19.72,0,0,0-.19-5.79,5.52,5.52,0,0,0-4.37-4.25c-3.72-.88-10.21.74-16.28,8.22s-7.74,6.27-10.22,4.8a8.63,8.63,0,0,0-5.09-1.54,3.79,3.79,0,0,0-2.76,1.32c-3.44,3.82-3,14.35-2.94,15.94Z"/><path class="cls-4" d="M83.6,24.5S80.27,23.26,78.11,28a92.22,92.22,0,0,1-5.47,10l1.9.48s.48-3.32,1.67-3.8L75.73,39s14.28,5,20.7-.47l-.24-1.66a1.54,1.54,0,0,1,1,1.66l.72-.71a13,13,0,0,0-2.86-3.33c-1.4-1.24-1.89-3.61-2-5.09A6.29,6.29,0,0,0,91.62,26C90.11,24.31,87.53,22.56,83.6,24.5Z"/><path class="cls-5" d="M80.11,43.06l-3.45-4.3-2.59-8.82L84,19.4s2.16-8.18.22-7.75-2.37,6.46-2.37,6.46L69.31,27.79s1.29,13.55,5,18.28l2.8,8.82Z"/><path class="cls-5" d="M89.58,43.06,93,38.76l2.58-8.82L85.7,19.4s-2.16-8.18-.22-7.75,2.37,6.46,2.37,6.46l12.51,9.68s-1.3,13.55-5,18.28l-2.81,8.82Z"/><path class="cls-5" d="M84.83,39.4a5.59,5.59,0,1,0-5.6-5.59A5.58,5.58,0,0,0,84.83,39.4Z"/><path class="cls-5" d="M82.25,36.82s.21,4.52-1.08,6-2.59,9.25,3.66,9.47,5.61-6.46,5.61-6.46L89.11,42.2s-1.94-2.8-1.3-5.38Z"/><path class="cls-5" d="M76.43,86.94l4.68,1.4s3.77-2.26,3.77-.11-1.29,5-.86,6.88,1.29,6.67,0,6.67-3.91-8.39-3.91-8.39L75.8,91Z"/><path class="cls-5" d="M82.25,117.05l-1.73,6.67s-1.51,1.93,0,2.79a4.42,4.42,0,0,1,1.59,2,3.67,3.67,0,0,0,3.62,2.18c.74-.06,1.36-.35,1.51-1.1a1.6,1.6,0,0,0-.31-1.36,11.42,11.42,0,0,1-2-3.55l.65-7.53Z"/><path class="cls-4" d="M78.11,34.8s1.91-2.61,3.57-3.08,1.9-2.85,1.9-2.85,4.29,4.74,6.9,5,.24-5.69.24-5.69L86,27l-4.52.47-3.57,2.38Z"/><path class="cls-4" d="M74.49,70.59l-.87,1.72S52.71,79,54.44,85.22s11.42,4.51,11.42,4.51l10.78,1.94,1.08-4.73L70.17,85l12.94-4.73.43,21.94-1.72,15.7,4.31.43s4.74-14.41,4.09-20.43c0,0,8-24.52,3.45-28.18S74.49,70.59,74.49,70.59Z"/><path class="cls-2" d="M85.11,45.86,81.72,41.8l-2.28,1-2.33,7.57a8,8,0,0,0,.43,7.53s.43,2.58-.21,3.23-.86,4.73-.86,4.73l-2.81,5.38s16,2.79,20.7-1.08c0,0-2.49-9.15-1-11.95s1.72-7.08,0-9-3.55-7-3.55-7l-1-.67Z"/><line class="cls-6" x1="0.98" y1="131.92" x2="168.17" y2="131.92"/></svg>