<svg id="Capa_1" data-name="Capa 1" xmlns="http://www.w3.org/2000/svg" xmlns:xlink="http://www.w3.org/1999/xlink" viewBox="0 0 190 127"><defs><style>.cls-1{fill:none;}.cls-2{clip-path:url(#clip-path);}.cls-3{fill:#e6e6e6;}.cls-4{fill:#fff;}.cls-5{fill:#f2f2f2;}.cls-6{fill:#ffb8b8;}.cls-7{fill:#3f3d56;}.cls-8{fill:#2f2e41;}.cls-9{fill:#ccc;}.cls-10{fill:#ff948a;}.cls-11{fill:#ffb6b6;}.cls-12{fill:#fd6584;}.cls-13{fill:#e4e4e4;}</style><clipPath id="clip-path"><rect class="cls-1" x="-12" width="202" height="127"/></clipPath></defs><title>5</title><g class="cls-2"><path class="cls-3" d="M107.8,3.9A33.31,33.31,0,0,1,150.6,14l-.3.2A32.93,32.93,0,0,0,108,4.3c-1.2.7-2.4,1.4-3.5,2.2a32.61,32.61,0,0,0-7.8,45.6l-.3.2a33.08,33.08,0,0,1,7.9-46.2C105.4,5.3,106.6,4.6,107.8,3.9Z"/><path class="cls-3" d="M184.9,37.1,137,33.3a3,3,0,0,1-1.9-1,3.06,3.06,0,0,1-.7-2l2.1-23.2a3,3,0,0,1,1-1.9,3.06,3.06,0,0,1,2-.7l47.8,3.7a3,3,0,0,1,1.9,1,3.06,3.06,0,0,1,.7,2l-2.1,23.2a3,3,0,0,1-1,1.9A2.36,2.36,0,0,1,184.9,37.1Z"/><path class="cls-4" d="M173.6,31.8h-1.1l-30.9-2.4a4.07,4.07,0,0,1-1.8-.5,5.26,5.26,0,0,1-1.4-1.1,5.07,5.07,0,0,1-.9-1.6,3.72,3.72,0,0,1-.2-1.8l.7-9a4.94,4.94,0,0,1,1.6-3.2,4.81,4.81,0,0,1,3.4-1.1l40,3.1a4.94,4.94,0,0,1,3.2,1.6,4.66,4.66,0,0,1,1.1,3.4,13.39,13.39,0,0,1-4.4,9,14.08,14.08,0,0,1-9.3,3.6Z"/><path class="cls-3" d="M182,21.2l-39.2-3c-.1,0-.2,0-.2-.1s-.1-.1-.2-.1-.1-.1-.1-.2v-.2c0-.1,0-.2.1-.2s.1-.1.2-.2.1-.1.2-.1h.2l39.2,3c.1,0,.2,0,.2.1s.1.1.2.2.1.1.1.2v.2c0,.1,0,.2-.1.2s-.1.1-.2.2-.1.1-.2.1S182.1,21.3,182,21.2Z"/><path class="cls-3" d="M165.7,22.4l-23.1-1.8a.52.52,0,0,1-.4-.2.44.44,0,0,1-.1-.5.52.52,0,0,1,.2-.4.44.44,0,0,1,.5-.1l23.1,1.8c.1,0,.2,0,.2.1s.1.1.2.1.1.1.1.2v.2c0,.1,0,.2-.1.2s-.1.1-.2.2-.1.1-.2.1-.1.2-.2.1Z"/><path class="cls-3" d="M170.8,25.3l-28.4-2.2c-.1,0-.2,0-.2-.1s-.1-.1-.2-.2-.1-.1-.1-.2v-.2c0-.1,0-.2.1-.2s.1-.1.2-.2.1-.1.2-.1h.2L171,24.1a.52.52,0,0,1,.4.2.44.44,0,0,1,.1.5.52.52,0,0,1-.2.4A.75.75,0,0,1,170.8,25.3Z"/><path class="cls-3" d="M181.7,68.5l-47.8-3.7a3,3,0,0,1-1.9-1,3.06,3.06,0,0,1-.7-2l2.1-23.2a3,3,0,0,1,1-1.9,3.06,3.06,0,0,1,2-.7l47.8,3.7a3,3,0,0,1,1.9,1,3.06,3.06,0,0,1,.7,2l-2.1,23.2a3,3,0,0,1-1,1.9A2.61,2.61,0,0,1,181.7,68.5Z"/><path class="cls-4" d="M170.3,63.3h-1.1l-30.9-2.4a4.07,4.07,0,0,1-1.8-.5,5.26,5.26,0,0,1-1.4-1.1,5.07,5.07,0,0,1-.9-1.6,3.72,3.72,0,0,1-.2-1.8l.7-9a4.07,4.07,0,0,1,.5-1.8,5.26,5.26,0,0,1,1.1-1.4,5.07,5.07,0,0,1,1.6-.9,3.72,3.72,0,0,1,1.8-.2l40,3.1a4.07,4.07,0,0,1,1.8.5,5.26,5.26,0,0,1,1.4,1.1,5.07,5.07,0,0,1,.9,1.6,3.72,3.72,0,0,1,.2,1.8,13.7,13.7,0,0,1-13.7,12.6Z"/><path class="cls-3" d="M178.8,52.7l-39.2-3c-.1,0-.2,0-.2-.1s-.1-.1-.2-.2-.1-.1-.1-.2V49c0-.1,0-.2.1-.2s.1-.1.1-.2.1-.1.2-.1h.2l39.2,3c.1,0,.2,0,.2.1s.1.1.2.2.1.1.1.2v.2c0,.1,0,.2-.1.2s-.1.1-.2.2-.1.1-.2.1Z"/><path class="cls-3" d="M162.5,53.9l-23.1-1.8c-.1,0-.2,0-.2-.1s-.1-.1-.2-.1-.1-.1-.1-.2v-.2c0-.1,0-.2.1-.2s.1-.1.2-.2.1-.1.2-.1h.2l23.1,1.8a.52.52,0,0,1,.4.2.44.44,0,0,1,.1.5.52.52,0,0,1-.2.4Z"/><path class="cls-3" d="M167.6,56.8l-28.4-2.2a.52.52,0,0,1-.4-.2.44.44,0,0,1-.1-.5.52.52,0,0,1,.2-.4.44.44,0,0,1,.5-.1l28.4,2.2a.52.52,0,0,1,.4.2.44.44,0,0,1,.1.5.52.52,0,0,1-.2.4A4.33,4.33,0,0,1,167.6,56.8Z"/><path class="cls-3" d="M60,56.4a12.84,12.84,0,0,1-1-4.3,11.08,11.08,0,0,1,.8-4.4,11.66,11.66,0,0,1,2.4-3.8,10.79,10.79,0,0,1,3.7-2.6,13.41,13.41,0,0,1,4.4-1,11.08,11.08,0,0,1,4.4.8,11.66,11.66,0,0,1,3.8,2.4,11.42,11.42,0,0,1,2.6,3.6l-.4.2a10.72,10.72,0,0,0-2.5-3.5,10.55,10.55,0,0,0-3.6-2.3,10.32,10.32,0,0,0-4.2-.7,12.16,12.16,0,0,0-4.2.9,10.72,10.72,0,0,0-3.5,2.5,10.55,10.55,0,0,0-2.3,3.6,10,10,0,0,0-.7,4.2,12.16,12.16,0,0,0,.9,4.2Z"/><path class="cls-5" d="M178.7,120.1c4.7-2.2,8.2-6.7,7.6-11.5a24.63,24.63,0,0,1-15.8,5.2c-2.3,0-4.9-.3-6.5,1a4.74,4.74,0,0,0-1.6,3.3,10.08,10.08,0,0,0,.6,3.8l-.1.3C168.4,122.6,174,122.3,178.7,120.1Z"/><path class="cls-4" d="M186.2,108.5a18.06,18.06,0,0,1-8.8,8.2,9.24,9.24,0,0,1-2.7.8,5.33,5.33,0,0,1-2.8-.4,11.22,11.22,0,0,0-2.6-.8,2.88,2.88,0,0,0-1.3.1,3.38,3.38,0,0,0-1.2.6,7.22,7.22,0,0,0-1.8,2.4,6.59,6.59,0,0,1-2,2.7c-.1.1,0,.3.2.2,1.7-1.2,1.9-3.3,3.3-4.7a2.55,2.55,0,0,1,1.2-.8,2.2,2.2,0,0,1,1.4-.2,11.22,11.22,0,0,1,2.6.8,6.35,6.35,0,0,0,2.7.4,8.28,8.28,0,0,0,2.7-.7,21.42,21.42,0,0,0,5.2-3.2,17.17,17.17,0,0,0,4.1-5.2c.1-.2-.1-.3-.2-.2Z"/><path class="cls-4" d="M178.7,116.2a3.87,3.87,0,0,0,1.9,1.2,4.12,4.12,0,0,0,2.2-.1c.1-.1,0-.3-.1-.2a3,3,0,0,1-2.1.1,4.18,4.18,0,0,1-1.8-1.1c-.1-.1-.2,0-.1.1Z"/><path class="cls-4" d="M172.3,117.3a4.38,4.38,0,0,1,.7-1.9,6.73,6.73,0,0,1,1.4-1.5c.1-.1,0-.3-.2-.2a5.36,5.36,0,0,0-1.5,1.5,4.79,4.79,0,0,0-.7,2c0,.2.2.3.3.1Z"/><path class="cls-4" d="M183.7,112.2a1.79,1.79,0,0,1-.5-.7,1.13,1.13,0,0,1-.1-.8c0-.1-.2-.2-.2,0a2.77,2.77,0,0,0,.1.9,1.34,1.34,0,0,0,.6.7h.2c-.1,0-.1,0-.1-.1.1.1,0,.1,0,0Z"/><path class="cls-5" d="M170.9,98.2v.3a20.25,20.25,0,0,1-.9,3.3c0,.1-.1.2-.1.3a19,19,0,0,1-4.6,6.9,27.46,27.46,0,0,1-2.6,2.2,12.07,12.07,0,0,0-3.6,3.1.76.76,0,0,0-.2.4l3.7,7.5h.1l.1.3c.1,0,.1-.1.2-.1a.1.1,0,0,0,.1-.1h.2l.9-.6h0a32.52,32.52,0,0,0,6-5l.2-.2a15.63,15.63,0,0,0,2-2.7c.3-.5.6-1.1.9-1.6a12.55,12.55,0,0,0,1.2-4.6,12.1,12.1,0,0,0-3.1-9.1C171,98.3,170.9,98.3,170.9,98.2Z"/><path class="cls-4" d="M170.8,98.3a16.82,16.82,0,0,1-1.1,11.7,8,8,0,0,1-1.5,2.1,5.67,5.67,0,0,1-2.3,1.2,11.7,11.7,0,0,0-2.5.7,2.36,2.36,0,0,0-.9.8,3.7,3.7,0,0,0-.5,1.1,7.69,7.69,0,0,0,.3,3,6.24,6.24,0,0,1,.3,3.3c0,.1.2.2.2.1.5-1.9-.8-3.8-.7-5.8a2.68,2.68,0,0,1,1.2-2.3,7.17,7.17,0,0,1,2.5-.7,5.28,5.28,0,0,0,2.4-1.1,6.52,6.52,0,0,0,1.6-2.1,15.31,15.31,0,0,0,1.7-5.5,16.31,16.31,0,0,0-.5-6.6c0-.1-.2-.1-.2.1Z"/><path class="cls-4" d="M170.4,108.8a3.18,3.18,0,0,0,3.8-1.3c.1-.1-.2-.2-.2-.1a2.79,2.79,0,0,1-3.5,1.2c-.3,0-.3.2-.1.2Z"/><path class="cls-4" d="M166.3,113.2a5.17,5.17,0,0,1-.8-1.9,7.39,7.39,0,0,1,0-2.1c0-.1-.2-.2-.2-.1a4.11,4.11,0,0,0,0,2.2,5,5,0,0,0,.8,2C166.2,113.4,166.4,113.3,166.3,113.2Z"/><path class="cls-4" d="M171.4,102.7a1.14,1.14,0,0,1-.8-.3,1.7,1.7,0,0,1-.6-.6c-.1-.1-.3,0-.2.1a2.34,2.34,0,0,0,.7.7,1.61,1.61,0,0,0,.9.3c.1,0,.1,0,.1-.1l-.1-.1Z"/><path class="cls-6" d="M178.8,66.9,176,51.8l-5.6-7.3-4.1,2.7c.6,3.2,5,9.1,5,9.1L175.2,68v.2a2.08,2.08,0,0,0,.1,1.1,1.46,1.46,0,0,0,.6.9,3.13,3.13,0,0,0,1,.5,1.42,1.42,0,0,0,1.1-.1,1.46,1.46,0,0,0,.9-.6,1.91,1.91,0,0,0,.5-1,2.05,2.05,0,0,0,0-1.1,4.37,4.37,0,0,0-.6-1Z"/><path class="cls-7" d="M166.3,48.8,171,45h0c.9-2-1.1-5.4-2.9-7.9a4.09,4.09,0,0,0-5.4-1.1,5.72,5.72,0,0,0-1.5,1.6,4.13,4.13,0,0,0-.4,2.2l.4,3.8Z"/><path class="cls-6" d="M149.8,123.8h-3.1l-1.5-12h4.6Z"/><path class="cls-8" d="M150.6,122.8h-.9l-3.4-1.4-1.8,1.4h0a4.3,4.3,0,0,0-2.8,1.1,3.93,3.93,0,0,0-1.1,2.8v.1h10Z"/><path class="cls-6" d="M163.6,123.8h-3.1l-1.5-12h4.6Z"/><path class="cls-8" d="M164.4,122.8h-.9l-3.4-1.4-1.8,1.4h0a4.3,4.3,0,0,0-2.8,1.1,3.93,3.93,0,0,0-1.1,2.8v.1h10Z"/><path class="cls-8" d="M168.3,72.2a32,32,0,0,1-.5,8.5c-.9,4.2-.9,15.9-.9,15.9l-2,22.9-6-.5-1.6-38.3-5.8,12.9.5,1.8-.7.5s.5,3.5.2,3.5a4.35,4.35,0,0,0-1.3.5l.7,18.7-6.2-.2-2.2-26.3,2.4-15,.2-2.9h.8l.4-1.2.8-2.1Z"/><path class="cls-7" d="M169,73h0c1.6-2.5-.8-8.3-1.1-9.2l1.5-.5-.3-3.2-.2-1.4,1.2-1.3h0l.7-6.4,1-4.2a10.16,10.16,0,0,0-.1-4.9,9.63,9.63,0,0,0-2.3-4.2l-2.3-2.3L164.4,31H160l-1.5,3.1a6.51,6.51,0,0,0-3.7,2.6,7.31,7.31,0,0,0-1.3,4.6l.3,8.2-1.3,10.2v1.8L151,63.3l.3,1.8-1.1.5-.5,2.6c-.2.3-1.6,2.3-1.6,2.9,0,.1.1.2.2.3.9.7,6.2,2.1,8.5,1.1s12.1.5,12.2.5Z"/><path class="cls-9" d="M127,126.8c0,.1,0,.1.1.2a.35.35,0,0,0,.2.1h57.2c.1,0,.1,0,.2-.1a.35.35,0,0,0,.1-.2c0-.1,0-.1-.1-.2a.35.35,0,0,0-.2-.1H127.3c-.1,0-.1,0-.2.1s-.1.1-.1.2Z"/><path class="cls-6" d="M160.5,30a6.3,6.3,0,1,0-6.3-6.3A6.27,6.27,0,0,0,160.5,30Z"/><path class="cls-10" d="M90.2,62.7A12.6,12.6,0,1,0,77.6,50.1,12.55,12.55,0,0,0,90.2,62.7Z"/><path class="cls-6" d="M158.5,48.3l-4.2-2.7c-2.6,1.8-6.2,8.3-6.2,8.3L139,62.2a1.91,1.91,0,0,0-1,.5,3.11,3.11,0,0,0-.7.9,2.08,2.08,0,0,0-.1,1.1,1.91,1.91,0,0,0,.5,1,1.8,1.8,0,0,0,.9.6,2,2,0,0,0,1.1.1,1.91,1.91,0,0,0,1-.5,1.8,1.8,0,0,0,.6-.9l12.6-8.8Z"/><path class="cls-7" d="M158.9,49l2-6.5-.7-3.6a3.7,3.7,0,0,0-.8-1.8,3.32,3.32,0,0,0-1.4-1,2.14,2.14,0,0,0-2.1.6,4.36,4.36,0,0,0-1.3,2.3c-.6,2.9-1,6.7.1,8.2h0Z"/><path class="cls-5" d="M9.6,123c-5.4-2.8-9.4-8.1-8.5-13.9a30.05,30.05,0,0,0,18.4,6.8c2.7.1,5.7-.1,7.7,1.5a5.09,5.09,0,0,1,1.7,4,17.75,17.75,0,0,1-.8,4.5l.1.4C21.7,126.4,15.1,125.8,9.6,123Z"/><path class="cls-4" d="M1.2,109.1a21.76,21.76,0,0,0,10.1,10,12.44,12.44,0,0,0,3.1,1,7.31,7.31,0,0,0,3.3-.3,15.83,15.83,0,0,1,3.1-.9,3.81,3.81,0,0,1,1.5.1,6.11,6.11,0,0,1,1.4.7,8,8,0,0,1,2,2.9,7.11,7.11,0,0,0,2.2,3.2c.1.1-.1.3-.2.2-2-1.4-2.2-3.9-3.7-5.7a3.54,3.54,0,0,0-3-1.3,10.89,10.89,0,0,0-3.1.8,6.91,6.91,0,0,1-3.2.4,9,9,0,0,1-3.2-.9,21.7,21.7,0,0,1-6-4A22.56,22.56,0,0,1,.8,109c.1.1.4,0,.4.1Z"/><path class="cls-4" d="M9.8,118.4a4.33,4.33,0,0,1-4.9,1.1.11.11,0,1,1,.1-.2,4,4,0,0,0,2.4.2,4,4,0,0,0,2.1-1.2C9.7,118.1,9.9,118.3,9.8,118.4Z"/><path class="cls-4" d="M17.3,120a6.15,6.15,0,0,0-.7-2.3,6.9,6.9,0,0,0-1.6-1.8c-.1-.1.1-.3.2-.2a5.19,5.19,0,0,1,1.7,1.9,6.81,6.81,0,0,1,.8,2.4c-.1.1-.4.2-.4,0Z"/><path class="cls-4" d="M4,113.6a1.56,1.56,0,0,0,.6-.8,3,3,0,0,0,.2-1,.15.15,0,0,1,.3,0,2.15,2.15,0,0,1-.2,1.1,2.7,2.7,0,0,1-.7.8H4v-.1Z"/><path class="cls-5" d="M19.7,97.5v.3a17.19,17.19,0,0,0,1,3.9c0,.1.1.2.1.3a23.29,23.29,0,0,0,5.2,8.3,19.28,19.28,0,0,0,3,2.7,16.67,16.67,0,0,1,4.2,3.7c.1.2.2.3.3.5l-4.7,8.7h-.1l-.2.4c-.1,0-.1-.1-.2-.1a.1.1,0,0,1-.1-.1H28c-.3-.2-.7-.5-1-.7h0a33.88,33.88,0,0,1-6.9-6.1l-.2-.2a19.42,19.42,0,0,1-2.3-3.3,12.44,12.44,0,0,1-1-2,16.91,16.91,0,0,1-1.2-5.5,14.42,14.42,0,0,1,4-10.6C19.5,97.7,19.6,97.6,19.7,97.5Z"/><path class="cls-4" d="M19.8,97.6a19.82,19.82,0,0,0,.8,13.8,10.57,10.57,0,0,0,1.7,2.6,6.05,6.05,0,0,0,2.7,1.5,14,14,0,0,1,2.9.9,3.46,3.46,0,0,1,1.1,1,2.35,2.35,0,0,1,.5,1.3,7,7,0,0,1-.5,3.5,7.55,7.55,0,0,0-.5,3.9c0,.2-.2.2-.3.1-.5-2.3,1.1-4.5,1.1-6.8a2.89,2.89,0,0,0-1.3-2.7,12.37,12.37,0,0,0-2.9-1,5.85,5.85,0,0,1-2.7-1.4,9.42,9.42,0,0,1-1.8-2.5,19.16,19.16,0,0,1-1.8-6.5,20.58,20.58,0,0,1,.8-7.8c0-.1.2-.1.2.1Z"/><path class="cls-4" d="M19.9,110.1a3.7,3.7,0,0,1-4.4-1.7c-.1-.1.2-.3.3-.1a3.42,3.42,0,0,0,4.1,1.6C20,109.8,20.1,110,19.9,110.1Z"/><path class="cls-4" d="M24.5,115.4a6,6,0,0,0,1-2.3,5.28,5.28,0,0,0,0-2.5c0-.2.2-.2.3-.1a5.71,5.71,0,0,1,0,2.6,8.18,8.18,0,0,1-1,2.4c-.2.2-.4,0-.3-.1Z"/><path class="cls-4" d="M18.8,102.8a1.69,1.69,0,0,0,1-.3,2.7,2.7,0,0,0,.8-.7c.1-.1.3,0,.2.1a2.36,2.36,0,0,1-.9.8,2,2,0,0,1-1.1.3c-.1,0-.1,0-.2-.1.1.1.1,0,.2-.1Z"/><path class="cls-10" d="M36.1,54l.4,3.8-.2,5,11-1.3,1-7.4L47,54Z"/><path class="cls-11" d="M30.4,122.6h2.4l1.1-9.3H30.3v9.3Z"/><path class="cls-8" d="M29.6,121l3.8-.2v1.6l3.7,2.5a1,1,0,0,1,.4.5.64.64,0,0,1,0,.6,1,1,0,0,1-.4.5,1.42,1.42,0,0,1-.6.2H31.9l-.8-1.6-.3,1.6H29.1Z"/><path class="cls-11" d="M43.9,122.6h2.4l1.1-9.3H43.8v9.3Z"/><path class="cls-8" d="M43.1,121l3.8-.2v1.6l3.7,2.5a1,1,0,0,1,.4.5.64.64,0,0,1,0,.6,1,1,0,0,1-.4.5,1.42,1.42,0,0,1-.6.2H45.4l-.8-1.6-.3,1.6H42.6Z"/><path class="cls-8" d="M29.3,114.6h0l.5-15.1a3.13,3.13,0,0,1-.4-1.9,4.49,4.49,0,0,1,.5-1.9l.1-.1-.2-.8a5.11,5.11,0,0,1,.3-3l.4-14c-1.5-10,5.8-16.5,5.8-16.5h11l2.4,8.1a159.53,159.53,0,0,1-1.2,44.3h.1c.2.1.3.4.2.8s-.4.5-.6.4l-5.8-.2c-.2-.1-.3-.4-.2-.8s.4-.5.6-.4l.4.2-.8-14.5.1-2.7-.2-3L41.4,80,38,96.6l-3.4,18c.1.1.2.2.2.3v.4c0,.1-.1.2-.2.3s-.2.1-.4.1H29.3c-.1,0-.1-.1-.2-.1s-.1-.1-.1-.2V115c0-.1.1-.1.1-.2s.1-.1.2-.1C29.2,114.6,29.2,114.6,29.3,114.6Z"/><path class="cls-11" d="M38,34.6a5.9,5.9,0,1,0-5.9-5.9A5.85,5.85,0,0,0,38,34.6Z"/><path class="cls-8" d="M12.1,56a19.94,19.94,0,0,1,3.4-5.3,13,13,0,0,0-2,6.3,8.26,8.26,0,0,0,1.3.7,13.41,13.41,0,0,0,4.4,1,18.88,18.88,0,0,1,4.1-7.3,12.59,12.59,0,0,0-2,7.3,17.23,17.23,0,0,0,5-1.1,14.25,14.25,0,0,0,6.4-4,13.78,13.78,0,0,0,3-7.6,37.54,37.54,0,0,0-.3-8.2c-.1-1.3,1-2.8.8-4.1h-.1a7,7,0,0,1-1.4-2.5,2.87,2.87,0,0,1,.4-2.7,2.58,2.58,0,0,1,1.3-.8c0-.1.1-.1.2-.2A12,12,0,0,1,40,25a5.39,5.39,0,0,0-1.8,2.3c.8-.2,1.6-.3,2.4-.5l.8-.8a4.13,4.13,0,0,1,1.1-.7,3.81,3.81,0,0,0-.9,1.3,4.31,4.31,0,0,0,2.6-1.5c.9-1.4-.2-3.4-1.6-4.2a6.15,6.15,0,0,0-3.5-.7,5.48,5.48,0,0,0-3.2,1.4,7.51,7.51,0,0,0-7.4-.4,10.58,10.58,0,0,0-3.9,3.4,10.87,10.87,0,0,1,1.8-.1,5,5,0,0,0-2.3.9,10.93,10.93,0,0,0-.8,1.5c-.2.3-.3.7-.5,1a43.59,43.59,0,0,0-2.1,6.4,32.37,32.37,0,0,1-2.8,7.3,16.11,16.11,0,0,1-9,7.2A8.64,8.64,0,0,0,12.1,56Z"/><path class="cls-10" d="M44,38.6l-1.1-.4-1.4-2.3-5.2.4L35,38.7,32,41l1.3,6.9,2,8.4L49,54.7V48.4s2.5-5-1.5-6.9Z"/><path class="cls-11" d="M65.1,60.6a1.18,1.18,0,0,1-.8.1,1.88,1.88,0,0,1-.8-.2.9.9,0,0,1-.6-.6,1.14,1.14,0,0,1-.3-.8L47.3,49.9l2.8-3.2L64.3,56.8a1.74,1.74,0,0,1,1.4.3,2.1,2.1,0,0,1,.8,1.1,2.2,2.2,0,0,1-.1,1.4,9.13,9.13,0,0,1-1.3,1Z"/><path class="cls-10" d="M42.1,45.5s-.7.7,1.1,1.9c1.5,1,8,5.7,10.3,6.5a3.55,3.55,0,0,0,.2,1,1.56,1.56,0,0,0,.8.6l2.1-4.6c-.5-1.1-1.2-.8-1.6-.6l-2.5-1.9-6.2-6.2L42.6,45Z"/><path class="cls-12" d="M35.9,21.6a7.09,7.09,0,0,0-1.3,3.5,6.67,6.67,0,0,0,.4,3.7"/><path class="cls-9" d="M6,126.6H6c0,.1,0,.1.1.2l.1.1H63.5c.1,0,.1,0,.2-.1a.35.35,0,0,0,.1-.2c0-.1,0-.1-.1-.2a.35.35,0,0,0-.2-.1H6.1a.1.1,0,0,0-.1.1v.2Z"/><path class="cls-3" d="M27.8,71.5c-.1.1-.3.2-.3.3a.3.3,0,0,0,0,.4l8,22.9c.1.1.2.3.3.3a.3.3,0,0,0,.4,0L82.6,79.2c.1-.1.3-.2.3-.3a.3.3,0,0,0,0-.4l-8-22.9c-.1-.1-.2-.3-.3-.3s-.3-.1-.4,0Z"/><path class="cls-4" d="M39.5,92.2a4.38,4.38,0,0,1-2.5-.8,4.74,4.74,0,0,1-1.6-2.1L31,76.9a4.47,4.47,0,0,1,.2-3.4,4.35,4.35,0,0,1,2.5-2.3l23.4-8.3A17.55,17.55,0,0,1,79.5,73.6a4.47,4.47,0,0,1-.2,3.4,4.35,4.35,0,0,1-2.5,2.3v0L41,92A7.72,7.72,0,0,1,39.5,92.2Z"/><path class="cls-3" d="M70.6,67.9l-21,7.3c-.3.1-.7-.2-.8-.6a.74.74,0,0,1,.3-1l21-7.3c.3-.1.7.2.8.6S70.9,67.8,70.6,67.9Z"/><path class="cls-3" d="M72.2,72.5l-21,7.3c-.3.1-.7-.2-.8-.6a.74.74,0,0,1,.3-1l21-7.3c.3-.1.7.2.8.6S72.5,72.4,72.2,72.5Z"/><path class="cls-13" d="M46.8,77.7a6.45,6.45,0,0,1,.3,2,2.77,2.77,0,0,1-.1.9,5,5,0,0,1-1.3,2.6,5.86,5.86,0,0,1-2.4,1.7,5.66,5.66,0,0,1-2.9.2,5,5,0,0,1-2.6-1.3c-.1-.1-.2-.1-.2-.2a6,6,0,0,1-1.4-2.1,5.39,5.39,0,0,1-.3-2.5,6.81,6.81,0,0,1,.8-2.4,5.16,5.16,0,0,1,1.8-1.8,5,5,0,0,1,2.4-.9,5.39,5.39,0,0,1,2.5.3,7.1,7.1,0,0,1,2.2,1.3A15.45,15.45,0,0,1,46.8,77.7Z"/><path class="cls-12" d="M41.7,80.5a1.1,1.1,0,1,0-1.1-1.1A1.11,1.11,0,0,0,41.7,80.5Z"/><path class="cls-7" d="M37.5,83.7c.3-.6.6-1.6,1.4-1.3.4.2,1,.7,1.3.1L42.3,78a.22.22,0,0,1,.2-.2.31.31,0,0,1,.2-.1H43a.37.37,0,0,1,.3.1l3.8,2a2.77,2.77,0,0,1-.1.9L37.7,84Z"/><path class="cls-11" d="M38.6,70.5a1.79,1.79,0,0,1-.7-.5,2.06,2.06,0,0,1-.5-1.5,1.14,1.14,0,0,1,.3-.8L32.9,50.5l4.2-.4,3.4,17a2,2,0,0,1,.8,1.2,2.2,2.2,0,0,1-.2,1.4,2,2,0,0,1-1.1.9A2.29,2.29,0,0,1,38.6,70.5Z"/><path class="cls-10" d="M32.1,41.1s-1,0-.5,2.2c.4,1.7,1.9,12.4,3.1,14.5a1.35,1.35,0,0,0-.5.9,1.23,1.23,0,0,0,.2,1l4.7-1.9c.4-1.1.1-2.1-.4-2.1l-.5-3.1L37.3,42l-4.4-1Z"/><path class="cls-10" d="M74.4,86.2l-6.5.3a.6.6,0,0,1-.4-.1c-.1-.1-.2-.1-.3-.2a.52.52,0,0,1-.2-.4v-.4a17.06,17.06,0,0,0-.4-8.1c-.1-.2,0-.4,0-.6a1,1,0,0,1,.4-.5,7.53,7.53,0,0,1,7.4-.2l.3.3c.1.1.1.2.2.4a28.79,28.79,0,0,1,.4,8.8.86.86,0,0,1-.3.6C74.8,86.1,74.6,86.2,74.4,86.2Z"/><path class="cls-4" d="M74.1,82l-5,.2h-.2c-.1,0-.1-.1-.2-.1l-.1-.1v-.4c0-.1.1-.1.1-.2l.1-.1H69l5-.2h.2c.1,0,.1.1.2.1l.1.1v.4c0,.1-.1.1-.1.2l-.1.1Z"/><path class="cls-4" d="M74,80.4l-5,.2a.4.4,0,1,1,0-.8l5-.2a.43.43,0,0,1,.3.7A.44.44,0,0,1,74,80.4Z"/><path class="cls-10" d="M180,35.8l-6.4-.8c-.1,0-.3-.1-.4-.1l-.3-.3c-.1-.1-.1-.2-.1-.4s0-.3.1-.4a17.29,17.29,0,0,0,1-8.1,1.27,1.27,0,0,1,.1-.6,1,1,0,0,1,.5-.4,7.44,7.44,0,0,1,7.3,1.1l.3.3a.6.6,0,0,1,.1.4,28.48,28.48,0,0,1-1.1,8.7,1,1,0,0,1-.4.5A1.48,1.48,0,0,1,180,35.8Z"/><path class="cls-4" d="M180.5,31.6l-4.9-.6c-.1,0-.1,0-.2-.1a.1.1,0,0,1-.1-.1.35.35,0,0,1-.1-.2v-.2c0-.1,0-.1.1-.2a.1.1,0,0,1,.1-.1.35.35,0,0,1,.2-.1h.2l4.9.6c.1,0,.2.1.3.2a.37.37,0,0,1,.1.3c0,.1-.1.2-.2.3S180.6,31.6,180.5,31.6Z"/><path class="cls-4" d="M180.7,29.9l-4.9-.6c-.1,0-.1,0-.2-.1a.1.1,0,0,1-.1-.1.35.35,0,0,1-.1-.2v-.2c0-.1,0-.1.1-.2a.1.1,0,0,1,.1-.1.35.35,0,0,1,.2-.1h.2l4.9.6c.1,0,.1,0,.2.1a.1.1,0,0,1,.1.1.35.35,0,0,1,.1.2v.2c0,.1,0,.1-.1.2a.1.1,0,0,1-.1.1.35.35,0,0,1-.2.1C180.8,29.9,180.8,30,180.7,29.9Z"/><path class="cls-4" d="M94.3,48.2H92.2V46.1a2,2,0,0,0-4,0v2.1H86.1a2,2,0,0,0,0,4h2.1v2.1a2,2,0,0,0,4,0V52.2h2.1a2,2,0,0,0,0-4Z"/><path class="cls-7" d="M163.7,8.7a2,2,0,1,0-2-2A2,2,0,0,0,163.7,8.7Z"/><path class="cls-7" d="M38.1,66.3a2,2,0,1,0-2-2A2,2,0,0,0,38.1,66.3Z"/><path class="cls-8" d="M166.2,14.5a5.73,5.73,0,0,1,5.3,6.1c2.2,2.3,1.5,5-.4,8a21.11,21.11,0,0,0-7.2,1.7l-.4-1.8-.9,2.3a24,24,0,0,0-2.3,1.1,8.55,8.55,0,0,1,1-6.8c1.3-1.8-1.8-4-4.1-3.7V19.7l-.6,1.7a2.59,2.59,0,0,1-2.8-.1h0C152.5,13.4,164.9,11.2,166.2,14.5Z"/><path class="cls-8" d="M166,15.4c2.7.1,4.8,2.6,4.8,5.8,2,2.2,1.3,4.8-.3,7.6a18.83,18.83,0,0,0-6.4,1.6l-.4-1.7-.8,2.2a12.81,12.81,0,0,0-2,1.1,7.92,7.92,0,0,1,.9-6.4c1.1-1.7-1.6-3.7-3.6-3.5V20.5l-.5,1.6a2.11,2.11,0,0,1-2.5-.1h0C153.7,14.4,164.7,12.3,166,15.4Z"/></g></svg>